<svg xmlns="http://www.w3.org/2000/svg" width="244" height="274" viewBox="0 0 244 274">
<g>
<path d="M 93.00 200.31 C87.80,200.64 82.69,201.62 79.84,202.85 C77.28,203.95 74.89,204.56 74.53,204.20 C74.17,203.84 71.73,203.53 69.11,203.52 C63.48,203.50 60.46,201.23 52.40,190.98 C34.67,168.46 24.48,130.90 27.96,100.96 C29.43,88.28 30.85,84.96 31.15,93.50 C31.26,96.80 31.28,101.41 31.18,103.75 C31.05,106.93 31.39,108.00 32.51,108.00 C33.68,108.00 34.00,109.40 34.00,114.50 C34.00,118.17 33.56,121.00 33.00,121.00 C31.38,121.00 31.86,125.71 33.66,127.52 C34.98,128.83 35.05,129.35 34.03,129.98 C33.15,130.52 32.96,131.85 33.41,134.14 C33.78,135.99 34.16,138.29 34.26,139.25 C34.35,140.21 34.93,141.00 35.54,141.00 C36.16,141.00 38.07,145.61 39.80,151.25 C41.52,156.89 44.90,165.42 47.31,170.20 C49.72,174.99 51.32,179.28 50.87,179.73 C49.69,180.91 53.68,187.06 55.24,186.46 C56.43,186.00 64.00,193.92 64.10,195.73 C64.12,196.15 64.79,197.21 65.57,198.08 C66.36,198.95 66.70,199.96 66.34,200.33 C65.97,200.70 66.22,201.00 66.89,201.00 C67.57,201.00 67.84,201.45 67.50,202.00 C67.16,202.55 67.33,203.00 67.87,203.00 C68.42,203.00 69.13,202.18 69.45,201.17 C70.12,199.05 83.41,194.44 91.74,193.44 C100.12,192.44 109.98,194.54 113.85,198.15 C117.07,201.17 117.58,203.67 114.89,203.31 C114.13,203.21 110.80,202.37 107.50,201.45 C103.08,200.21 99.27,199.91 93.00,200.31 ZM 239.11 196.96 C238.95,197.77 238.26,199.22 237.58,200.19 C236.08,202.33 234.00,200.77 234.00,197.52 C234.00,194.99 227.89,188.99 225.34,189.02 C223.78,189.03 223.73,189.18 225.00,190.00 C226.30,190.84 226.27,190.97 224.83,190.98 C223.92,190.99 223.01,191.47 222.82,192.05 C222.58,192.75 221.62,192.79 219.98,192.19 C218.62,191.68 217.60,190.97 217.71,190.60 C218.16,189.22 220.90,187.00 222.18,187.00 C222.91,187.00 223.57,185.79 223.66,184.30 C223.74,182.82 224.53,181.09 225.41,180.44 C226.28,179.80 227.00,177.94 227.00,176.30 C227.00,174.66 227.73,171.11 228.63,168.41 C230.43,162.96 231.54,130.36 229.99,128.49 C229.52,127.92 228.23,124.32 227.13,120.48 C224.72,112.04 222.13,105.53 219.61,101.50 C213.36,91.54 208.22,84.69 202.50,78.67 C196.92,72.81 196.16,71.57 197.07,69.88 C198.62,66.98 201.64,68.27 207.50,74.33 C218.10,85.30 225.14,95.84 229.92,107.95 C233.74,117.63 235.29,123.72 234.32,125.27 C233.90,125.95 233.70,129.41 233.88,132.97 C234.13,137.97 234.67,139.84 236.24,141.21 C238.07,142.79 238.20,143.67 237.56,149.74 C237.16,153.46 236.86,157.82 236.89,159.43 C236.97,163.36 233.22,177.94 231.43,180.71 C229.28,184.04 229.68,185.78 232.98,187.49 C236.13,189.12 239.61,194.50 239.11,196.96 ZM 14.00 176.04 C14.00,176.61 13.16,177.99 12.13,179.10 C10.47,180.88 10.08,180.94 8.76,179.62 C3.85,174.71 1.79,137.52 5.36,118.22 C7.45,106.88 8.53,103.88 10.25,104.54 C11.10,104.87 11.64,104.13 11.77,102.47 C11.90,100.97 11.57,100.15 10.99,100.50 L 10.99 100.50 C10.60,100.75 10.33,100.92 10.20,100.84 C9.89,100.65 10.46,99.02 12.41,93.43 L 12.42 93.43 C14.63,87.09 22.16,71.50 23.84,69.78 C24.22,69.38 25.76,69.86 27.25,70.83 L 29.95 72.61 L 27.23 76.55 C25.73,78.72 24.05,81.67 23.50,83.11 C22.95,84.54 20.97,89.84 19.11,94.88 C16.23,102.65 15.43,103.95 13.86,103.45 C11.57,102.73 11.50,103.36 13.62,105.48 C15.09,106.94 15.09,107.48 13.72,111.30 C11.07,118.64 9.64,135.73 10.47,150.23 C10.88,157.53 11.16,166.09 11.07,169.25 C10.95,173.82 11.24,175.00 12.46,175.00 C13.31,175.00 14.00,175.47 14.00,176.04 ZM 151.95 188.59 C150.57,191.17 147.26,191.57 140.00,190.02 C133.26,188.58 130.73,187.12 131.29,184.98 C131.58,183.89 131.36,182.72 130.80,182.38 C130.17,181.99 130.30,181.43 131.14,180.89 C132.24,180.20 132.20,180.03 130.95,180.02 C129.84,180.00 129.32,178.83 129.15,175.91 C128.99,173.27 129.28,172.05 129.95,172.47 C130.53,172.83 131.00,172.66 131.00,172.09 C131.00,171.53 131.67,171.32 132.49,171.64 C133.32,171.95 133.76,172.57 133.49,173.02 C133.21,173.46 133.55,174.06 134.24,174.34 C135.22,174.73 135.21,174.86 134.19,174.92 C133.47,174.96 133.14,175.41 133.45,175.92 C133.76,176.42 133.55,178.06 132.98,179.55 C132.94,179.65 132.91,179.75 132.87,179.84 C132.34,181.22 132.09,181.90 132.31,182.33 C132.53,182.79 133.27,182.99 134.75,183.44 C136.79,184.07 137.00,183.81 137.00,180.57 C137.00,178.61 136.53,177.00 135.96,177.00 C135.35,177.00 135.45,176.43 136.19,175.64 C136.93,174.85 138.73,174.46 140.48,174.70 C147.36,175.65 147.49,175.62 147.82,172.75 C148.00,171.18 147.65,170.00 146.99,170.00 C146.37,170.00 145.18,169.32 144.36,168.50 C143.46,167.60 143.31,167.00 143.99,167.00 C144.61,167.00 144.84,166.55 144.50,166.00 C144.12,165.39 145.77,165.00 148.77,165.00 C152.46,165.00 153.67,165.37 153.67,166.50 C153.67,167.32 153.38,168.00 153.03,168.00 C152.69,168.00 152.59,169.57 152.81,171.50 C153.09,173.92 153.72,175.00 154.86,174.98 C158.09,174.95 159.22,173.39 158.71,169.63 C158.34,166.90 158.58,166.00 159.67,166.00 C160.47,166.00 160.86,165.59 160.55,165.08 C160.24,164.58 161.33,163.87 162.98,163.50 C164.63,163.14 166.23,162.43 166.55,161.92 C166.86,161.42 168.22,161.00 169.56,161.00 C171.73,161.00 172.00,161.43 172.00,164.89 C172.00,167.43 171.48,168.99 170.50,169.36 C169.68,169.68 169.00,169.47 169.00,168.91 C169.00,168.34 168.59,168.14 168.09,168.45 C167.58,168.76 166.99,168.48 166.78,167.83 C166.55,167.16 165.64,166.93 164.69,167.29 C162.99,167.94 162.18,174.00 163.79,174.00 C164.22,174.00 164.64,174.90 164.73,176.00 C164.81,177.10 164.45,178.00 163.94,178.00 C163.42,178.00 163.00,179.12 163.00,180.50 C163.00,181.88 162.55,183.00 162.00,183.00 C161.45,183.00 161.00,182.07 161.00,180.94 C161.00,179.81 160.58,179.14 160.06,179.46 C159.55,179.78 158.66,179.25 158.09,178.27 C157.20,176.74 157.06,176.72 157.03,178.12 C156.99,180.01 150.79,181.16 145.39,180.29 C142.29,179.79 142.00,179.95 142.00,182.25 C142.00,185.32 145.47,186.58 148.49,184.60 C150.20,183.48 150.74,183.50 151.88,184.72 C153.01,185.92 153.02,186.60 151.95,188.59 ZM 56.64 244.74 C57.23,243.76 57.07,243.76 55.86,244.73 C54.61,245.75 53.67,245.34 50.42,242.37 C48.27,240.39 46.50,238.41 46.50,237.97 C46.50,237.00 45.09,235.50 44.17,235.50 C42.09,235.49 35.83,230.61 31.88,225.91 C23.66,216.14 17.42,205.70 12.58,193.62 C9.36,185.56 9.64,182.02 13.44,182.74 C15.32,183.10 16.31,184.34 17.55,187.86 C18.45,190.41 19.82,193.69 20.59,195.15 C21.37,196.61 22.00,198.70 22.00,199.78 C22.00,200.87 22.64,202.28 23.42,202.93 C24.20,203.58 26.69,207.12 28.95,210.80 C31.21,214.49 35.95,220.85 39.47,224.94 C43.00,229.03 45.70,232.68 45.47,233.04 C45.25,233.41 46.17,234.75 47.53,236.03 C48.89,237.30 50.01,239.06 50.02,239.92 C50.02,240.84 50.34,241.08 50.77,240.50 C51.88,238.98 57.99,239.37 59.03,241.03 C59.59,241.94 59.56,242.63 58.96,242.84 C58.43,243.02 58.21,243.54 58.49,243.98 C58.76,244.43 58.29,245.06 57.44,245.38 C56.39,245.79 56.14,245.58 56.64,244.74 ZM 180.34 56.85 C181.64,58.31 181.63,58.67 180.22,59.97 C178.79,61.27 178.70,61.23 179.33,59.58 C179.88,58.15 179.75,57.96 178.77,58.75 C177.86,59.50 176.21,59.17 173.00,57.63 C166.97,54.74 158.99,52.36 150.50,50.91 C146.09,50.16 142.90,49.03 141.88,47.86 C139.94,45.63 133.49,45.32 132.30,47.40 C131.79,48.30 128.20,49.20 122.40,49.90 C117.39,50.51 110.75,51.84 107.65,52.87 C103.12,54.36 102.00,54.46 102.00,53.37 C102.00,52.61 101.52,52.00 100.93,52.00 C99.28,52.00 100.33,48.52 102.02,48.37 C102.83,48.29 105.38,48.18 107.68,48.12 C110.09,48.05 112.55,47.30 113.51,46.35 C116.28,43.58 133.00,41.58 133.00,44.02 C133.00,44.58 135.14,45.01 137.75,44.97 C140.36,44.93 143.40,45.09 144.50,45.32 C145.60,45.55 147.06,45.30 147.74,44.76 C149.44,43.41 154.65,44.53 161.09,47.64 C164.06,49.07 167.50,50.30 168.73,50.37 C169.97,50.44 171.19,51.06 171.46,51.75 C171.72,52.44 172.43,53.00 173.03,53.00 C173.63,53.00 173.86,52.58 173.54,52.07 C173.23,51.56 173.99,51.00 175.24,50.82 C176.85,50.59 177.42,49.92 177.23,48.50 C176.97,46.67 177.04,46.65 178.03,48.26 C178.62,49.22 178.85,50.43 178.53,50.95 C178.22,51.46 178.70,52.29 179.61,52.80 C180.80,53.47 180.93,53.93 180.06,54.46 C179.17,55.02 179.24,55.61 180.34,56.85 ZM 176.61 213.25 C175.95,214.12 175.61,214.61 175.17,214.74 C174.65,214.89 173.97,214.51 172.39,213.63 C172.27,213.57 172.14,213.49 172.00,213.42 C170.25,212.45 165.76,212.02 157.00,212.01 C144.60,211.99 134.96,210.93 127.75,208.79 C124.87,207.94 124.00,207.17 124.00,205.45 C124.00,202.62 126.67,201.53 128.68,203.54 C129.60,204.46 131.01,204.82 132.22,204.43 C133.33,204.08 135.97,204.58 138.14,205.56 C141.13,206.91 142.34,207.06 143.23,206.17 C144.00,205.40 148.69,205.01 156.95,205.02 C167.18,205.04 170.29,205.40 173.75,206.97 C178.20,208.99 178.82,210.34 176.61,213.25 ZM 37.00 85.44 C37.00,86.17 35.88,86.98 34.50,87.24 C33.12,87.51 32.00,87.31 32.00,86.80 C32.00,86.30 31.48,86.20 30.84,86.60 C30.03,87.10 29.88,86.59 30.32,84.91 C30.67,83.58 31.45,80.03 32.05,77.00 C33.67,68.89 35.21,64.00 36.16,64.00 C36.62,64.00 37.00,63.55 37.00,63.01 C37.00,61.57 32.99,62.39 31.97,64.04 C31.47,64.86 31.55,65.96 32.18,66.72 C32.77,67.42 32.85,68.03 32.37,68.08 C31.89,68.12 30.71,68.30 29.75,68.49 C28.63,68.70 28.03,68.22 28.07,67.16 C28.17,64.84 29.44,61.84 30.29,61.93 C32.32,62.14 32.83,61.72 34.57,58.50 C35.61,56.58 36.85,55.00 37.33,55.00 C37.82,55.00 37.96,54.33 37.64,53.51 C37.33,52.69 37.39,52.11 37.79,52.22 C38.18,52.33 39.52,51.86 40.77,51.17 C42.02,50.47 43.48,50.18 44.01,50.51 C44.55,50.84 44.72,50.43 44.38,49.56 C44.04,48.65 44.45,47.76 45.39,47.40 C46.27,47.07 46.74,46.39 46.44,45.90 C46.14,45.42 46.35,44.22 46.92,43.26 C47.48,42.29 47.96,41.95 47.98,42.50 C48.01,43.05 48.47,42.83 49.02,42.00 C49.89,40.67 50.11,40.67 50.98,42.00 C52.23,43.90 51.75,45.50 49.92,45.50 C48.10,45.50 46.92,47.39 46.30,51.31 C46.03,53.02 45.07,55.12 44.16,55.96 C42.24,57.74 41.68,61.18 43.16,62.10 C43.80,62.50 43.40,64.25 42.09,66.82 C40.94,69.08 40.00,71.61 40.00,72.46 C40.00,73.31 39.66,74.00 39.24,74.00 C37.04,74.00 34.18,82.37 35.99,83.50 C36.55,83.84 37.00,84.71 37.00,85.44 ZM 140.97 140.25 C140.99,143.41 140.66,145.99 140.25,145.98 C138.50,145.94 134.85,140.44 134.77,137.72 C134.71,135.36 134.03,134.49 131.38,133.38 C125.46,130.91 103.00,132.07 103.00,134.85 C103.00,135.26 103.49,136.09 104.08,136.68 C104.86,137.46 104.53,138.36 102.91,139.87 C100.33,142.27 99.99,142.16 99.63,138.82 C99.49,137.50 99.08,135.95 98.73,135.37 C97.42,133.26 101.16,130.01 106.77,128.38 C113.94,126.29 130.16,127.00 135.21,129.61 C139.99,132.08 140.93,133.83 140.97,140.25 ZM 209.97 232.35 C209.13,233.25 206.96,234.16 205.14,234.37 C202.78,234.65 202.15,234.45 202.92,233.68 C204.28,232.32 204.34,230.67 203.00,231.50 C200.60,232.99 202.46,230.76 208.73,224.67 C212.44,221.08 215.72,218.55 216.03,219.05 C216.97,220.56 220.99,217.13 220.32,215.39 C219.59,213.48 231.65,200.93 233.53,201.65 C234.23,201.92 234.98,203.43 235.22,205.02 C235.59,207.54 234.57,208.95 227.07,216.30 C222.36,220.92 216.93,225.29 215.00,226.02 C211.25,227.42 208.00,229.80 208.00,231.12 C208.00,231.57 208.79,231.66 209.75,231.33 C211.33,230.78 211.35,230.88 209.97,232.35 ZM 187.06 41.76 C186.44,44.09 185.54,46.00 185.08,46.00 C183.22,46.00 181.00,40.82 181.00,36.51 C181.00,33.89 179.94,29.41 178.51,26.02 C177.14,22.77 176.27,19.47 176.57,18.68 C177.27,16.86 174.37,13.92 172.57,14.61 C171.64,14.97 170.95,14.07 170.47,11.86 C170.00,9.72 170.14,8.45 170.88,8.21 C171.50,8.00 171.76,7.42 171.45,6.91 C171.14,6.41 171.59,6.00 172.45,6.00 C174.10,6.00 182.62,18.42 184.44,23.50 C185.03,25.15 185.85,27.03 186.27,27.67 C187.75,29.98 188.18,37.61 187.06,41.76 ZM 142.67 236.57 C133.23,236.53 124.26,236.85 122.75,237.27 C120.20,237.98 119.58,237.66 119.88,235.75 C119.95,235.34 119.21,234.99 118.25,234.98 C116.91,234.97 116.81,234.77 117.84,234.12 C118.57,233.66 119.02,232.88 118.84,232.39 C118.22,230.75 125.66,230.81 127.30,232.45 C128.94,234.08 135.53,234.66 134.55,233.08 C134.24,232.58 135.22,231.91 136.74,231.60 C139.17,231.11 141.95,231.02 154.50,231.06 C156.15,231.06 158.50,231.28 159.72,231.54 C161.65,231.96 161.80,232.34 160.89,234.33 C159.85,236.61 159.67,236.64 142.67,236.57 ZM 106.81 180.33 C105.46,181.69 102.00,182.19 102.00,181.03 C102.00,180.68 102.56,179.79 103.25,179.05 C104.25,177.98 104.25,177.85 103.25,178.41 C101.54,179.38 101.68,177.51 103.62,173.77 C104.75,171.59 105.07,169.23 104.68,165.95 C104.19,161.82 104.38,161.15 106.31,160.28 C108.78,159.16 125.00,159.83 125.00,161.05 C125.00,161.48 125.30,162.62 125.67,163.57 C126.28,165.16 125.63,165.26 118.17,164.75 L 110.00 164.19 L 110.00 166.69 C110.00,168.29 110.67,169.36 111.88,169.68 C113.06,169.99 113.75,171.06 113.75,172.58 C113.75,174.45 113.22,175.00 111.41,175.00 C110.09,175.00 108.60,175.87 108.00,177.00 C107.41,178.10 107.20,179.00 107.54,179.00 C107.87,179.00 107.54,179.60 106.81,180.33 ZM 132.00 268.50 C132.00,270.64 129.84,270.17 127.50,267.53 C123.65,263.18 124.26,262.76 133.38,263.52 C140.71,264.13 142.73,263.92 148.66,261.93 C152.42,260.67 156.62,259.61 158.00,259.57 C159.38,259.53 160.41,259.02 160.31,258.43 C160.21,257.84 161.52,256.53 163.23,255.53 C165.99,253.89 166.26,253.87 165.70,255.35 C165.26,256.49 165.60,257.01 166.78,257.02 C167.88,257.03 167.23,257.83 165.00,259.23 C161.68,261.31 160.37,262.57 159.77,264.25 C159.10,266.12 149.40,268.57 145.50,267.85 C138.29,266.52 132.00,266.83 132.00,268.50 ZM 188.86 113.72 C188.78,112.50 188.39,113.30 188.00,115.50 L 187.28 119.50 L 187.14 115.97 C187.06,114.03 187.70,111.44 188.56,110.21 C189.92,108.28 189.93,107.91 188.66,107.42 C187.86,107.11 186.97,105.99 186.69,104.93 C186.30,103.43 185.22,102.97 181.84,102.85 C179.45,102.76 176.90,102.65 176.16,102.59 C175.42,102.53 173.99,101.47 172.99,100.24 C171.78,98.74 169.60,97.77 166.50,97.34 C162.05,96.73 159.10,94.13 161.82,93.23 C162.47,93.01 163.00,92.20 163.00,91.42 C163.00,89.60 163.77,89.62 165.64,91.50 C166.47,92.32 168.45,93.00 170.05,93.00 C172.04,93.00 173.47,93.78 174.59,95.50 C176.01,97.66 176.97,98.00 181.66,98.00 C186.09,98.00 187.54,98.45 189.55,100.45 C191.60,102.51 192.00,103.88 192.00,108.85 C192.00,113.20 191.60,114.94 190.50,115.36 C189.46,115.76 188.96,115.25 188.86,113.72 ZM 188.50 249.19 C186.30,250.24 182.38,252.41 179.78,254.00 C177.18,255.60 174.81,256.50 174.50,256.00 C174.19,255.50 173.32,255.32 172.57,255.61 C171.82,255.90 170.86,255.59 170.45,254.91 C169.96,254.13 170.11,253.95 170.85,254.40 C171.48,254.80 172.00,254.68 172.00,254.14 C172.00,253.61 171.44,252.95 170.75,252.69 C170.06,252.44 171.25,251.47 173.38,250.54 C175.52,249.62 178.45,248.07 179.88,247.11 C192.43,238.74 195.03,237.25 195.57,238.12 C195.95,238.72 197.22,238.46 198.84,237.42 C200.30,236.50 200.94,236.34 200.25,237.07 C198.65,238.78 198.60,240.80 200.20,239.20 C201.95,237.45 203.47,237.73 201.98,239.52 C201.21,240.45 199.94,240.80 198.73,240.42 C197.42,240.00 196.98,240.16 197.43,240.89 C198.32,242.33 193.54,246.78 188.50,249.19 ZM 179.07 226.08 C178.75,226.12 177.75,226.30 176.84,226.48 C175.42,226.75 175.32,226.38 176.19,223.90 C176.74,222.30 177.60,220.75 178.10,220.44 C179.33,219.68 179.24,215.00 178.00,215.00 C177.45,215.00 177.00,214.49 177.00,213.88 C177.00,213.11 177.48,213.15 178.52,214.02 C179.76,215.04 180.37,214.97 181.85,213.64 C182.85,212.73 184.00,212.33 184.41,212.75 C184.83,213.16 185.02,212.87 184.83,212.11 C184.38,210.23 196.16,200.64 197.08,202.13 C197.46,202.75 198.25,202.96 198.83,202.61 C200.75,201.42 199.62,206.12 197.44,208.34 C196.28,209.53 192.75,212.30 189.60,214.50 C186.45,216.70 182.92,220.19 181.75,222.25 C180.59,224.31 179.38,226.03 179.07,226.08 ZM 173.07 107.96 C172.00,108.53 165.14,109.00 157.81,109.00 L 144.49 109.00 L 142.24 104.11 C139.94,99.10 139.27,96.32 141.00,99.00 C141.65,100.00 141.97,100.08 141.98,99.25 C141.99,98.56 142.45,98.00 143.00,98.00 C143.55,98.00 144.00,99.39 144.00,101.09 L 144.00 104.18 L 156.75 103.99 C172.26,103.76 172.27,103.76 171.50,105.00 C171.16,105.55 171.36,106.00 171.94,106.00 C172.52,106.00 173.00,105.55 173.00,105.00 C173.00,104.45 173.45,104.00 174.00,104.00 C175.75,104.00 175.07,106.89 173.07,107.96 ZM 123.77 265.53 C123.62,265.67 120.80,266.03 117.50,266.34 C108.84,267.16 98.25,263.68 98.03,259.95 C98.01,259.65 100.81,259.34 104.25,259.26 C111.71,259.08 122.65,261.66 123.47,263.78 C123.79,264.61 123.92,265.40 123.77,265.53 ZM 80.08 178.74 C81.41,179.41 81.82,179.93 81.00,179.89 C78.64,179.77 73.27,175.73 72.08,173.20 C69.73,168.20 71.98,157.54 75.16,158.55 C76.17,158.87 77.00,158.65 77.00,158.07 C77.00,157.48 76.55,157.00 76.00,157.00 C75.45,157.00 75.00,156.49 75.00,155.88 C75.00,155.09 75.44,155.12 76.47,155.97 C77.47,156.80 77.75,158.21 77.35,160.35 C77.03,162.08 76.79,165.30 76.82,167.50 C76.92,175.17 77.59,177.46 80.08,178.74 ZM 157.12 139.23 C158.98,142.70 157.48,142.03 153.20,137.48 C149.08,133.10 147.93,129.78 150.09,128.45 C150.68,128.08 152.68,129.24 154.52,131.02 C156.56,133.00 158.47,134.04 159.40,133.68 C160.25,133.35 161.24,133.59 161.62,134.20 C162.07,134.92 161.85,135.02 161.00,134.50 C160.13,133.96 159.93,134.08 160.41,134.85 C160.91,135.66 161.68,135.70 162.99,135.00 C165.92,133.44 166.48,133.81 164.49,136.01 C163.20,137.44 161.74,137.91 159.38,137.65 C156.38,137.32 156.18,137.46 157.12,139.23 ZM 149.00 157.00 C149.00,157.55 147.04,158.00 144.65,158.00 C139.71,158.00 134.79,154.81 136.73,152.87 C137.38,152.22 138.37,152.12 139.16,152.63 C139.90,153.10 144.18,153.33 148.69,153.14 C157.12,152.79 161.07,153.68 157.43,155.10 C156.37,155.52 154.04,155.89 152.25,155.93 C150.46,155.97 149.00,156.45 149.00,157.00 ZM 103.11 156.25 C104.37,154.63 104.32,154.63 102.38,156.28 C100.51,157.86 100.15,157.88 99.02,156.53 C98.32,155.69 97.14,155.00 96.38,155.00 C94.27,155.00 94.72,153.30 97.75,149.87 C99.26,148.15 100.38,146.35 100.24,145.85 C100.10,145.35 101.06,145.65 102.38,146.52 C103.95,147.54 104.62,148.74 104.30,149.94 C104.04,150.96 104.36,152.80 105.01,154.02 C105.96,155.80 105.93,156.43 104.85,157.11 C102.58,158.55 101.68,158.10 103.11,156.25 ZM 79.32 253.93 C78.13,253.97 77.00,254.64 76.82,255.42 C76.56,256.56 75.32,256.35 70.50,254.32 C67.20,252.93 64.28,251.57 64.00,251.31 C63.72,251.04 64.55,249.98 65.83,248.94 C67.97,247.21 68.34,247.18 70.53,248.61 C71.84,249.47 73.37,249.89 73.93,249.54 C74.49,249.20 76.20,249.59 77.73,250.42 C79.34,251.29 79.87,251.97 79.00,252.03 C77.97,252.11 78.13,252.41 79.50,253.00 C81.43,253.83 81.43,253.86 79.32,253.93 ZM 169.49 129.98 C170.42,131.50 167.42,131.21 166.14,129.67 C164.53,127.73 173.76,117.55 176.25,118.53 C177.21,118.90 178.00,119.98 178.00,120.91 C178.00,123.36 171.47,129.39 169.60,128.68 C168.75,128.35 167.76,128.59 167.38,129.20 C166.98,129.85 167.14,130.03 167.78,129.64 C168.37,129.27 169.14,129.42 169.49,129.98 ZM 195.20 68.53 C194.35,68.20 193.40,68.35 193.08,68.85 C192.44,69.86 181.00,62.46 181.00,61.04 C181.00,59.13 183.71,59.40 187.72,61.72 C190.04,63.06 192.40,63.87 192.96,63.52 C194.56,62.54 196.49,64.27 196.62,66.81 C196.72,68.51 196.34,68.96 195.20,68.53 ZM 207.46 198.94 C207.78,199.46 207.16,199.81 206.09,199.73 C205.02,199.65 204.34,199.27 204.58,198.88 C204.82,198.49 204.50,198.00 203.88,197.79 C202.41,197.30 208.25,191.43 210.89,190.74 C212.11,190.42 213.56,190.97 214.64,192.15 C216.31,194.00 216.31,194.06 214.44,193.36 C212.73,192.71 212.66,192.82 213.86,194.30 C215.03,195.73 214.99,196.07 213.61,196.60 C212.73,196.94 211.30,196.95 210.45,196.62 C209.56,196.28 209.16,196.44 209.51,197.01 C209.84,197.56 209.39,198.00 208.50,198.00 C207.61,198.00 207.14,198.42 207.46,198.94 ZM 93.88 187.38 C89.60,188.23 86.91,188.06 84.25,186.78 C79.78,184.62 81.46,183.27 89.01,182.92 C92.77,182.75 94.42,183.04 94.25,183.84 C94.11,184.48 94.68,185.00 95.50,185.00 C98.24,185.00 97.05,186.74 93.88,187.38 ZM 216.84 142.46 C215.53,145.32 213.86,146.16 211.91,144.92 C211.13,144.43 210.95,144.02 211.50,144.00 C212.05,143.98 211.91,143.60 211.20,143.14 C209.12,141.83 211.75,137.00 214.55,137.00 C217.34,137.00 218.29,139.27 216.84,142.46 ZM 165.00 187.97 C165.00,189.12 160.70,189.77 158.43,188.96 C156.55,188.29 156.55,188.26 158.50,187.75 C159.96,187.37 159.70,187.20 157.53,187.12 L 154.55 187.00 L 156.89 185.37 C158.84,184.00 159.36,183.96 160.09,185.12 C160.73,186.11 160.97,186.15 160.98,185.25 C161.01,183.55 164.48,183.67 165.93,185.42 C166.91,186.59 166.71,186.77 164.81,186.41 C163.54,186.17 163.06,186.25 163.75,186.57 C164.44,186.90 165.00,187.53 165.00,187.97 ZM 126.48 102.90 C127.07,106.24 126.01,106.92 123.98,104.48 C122.95,103.24 123.04,102.61 124.46,101.05 C125.45,99.95 126.86,99.39 127.76,99.74 C128.79,100.14 129.08,99.94 128.61,99.17 C128.09,98.33 129.24,98.05 132.69,98.16 C136.97,98.30 137.12,98.37 134.00,98.82 L 130.50 99.32 L 136.50 100.76 L 133.75 100.88 C132.24,100.95 131.00,101.45 131.00,102.00 C131.00,103.50 129.35,103.21 127.54,101.40 C126.07,99.92 125.98,100.05 126.48,102.90 ZM 184.00 183.50 C184.00,185.67 183.56,186.00 180.67,186.00 C176.86,186.00 176.00,185.42 176.00,182.83 C176.00,181.36 176.79,181.00 180.00,181.00 C183.60,181.00 184.00,181.25 184.00,183.50 ZM 121.00 143.00 C121.00,143.55 118.92,144.00 116.38,144.00 C112.32,144.00 111.83,143.77 112.27,142.07 C112.58,140.90 112.33,140.31 111.64,140.56 C110.26,141.07 107.32,139.35 108.14,138.52 C108.47,138.20 110.87,138.51 113.48,139.21 C117.58,140.30 117.91,140.56 115.86,141.14 C113.96,141.67 114.23,141.82 117.25,141.90 C119.31,141.96 121.00,142.45 121.00,143.00 ZM 141.14 168.00 C140.60,168.00 139.56,168.21 138.83,168.47 C138.10,168.72 136.84,168.19 136.04,167.28 C134.96,166.06 134.90,165.53 135.80,165.23 C136.47,165.01 136.78,164.46 136.50,164.01 C136.23,163.56 137.63,163.69 139.63,164.30 C141.62,164.91 142.75,165.58 142.12,165.79 C141.50,166.00 141.24,166.58 141.55,167.09 C141.86,167.59 141.68,168.00 141.14,168.00 ZM 113.65 151.75 C114.24,155.67 109.08,154.14 108.23,150.14 C108.05,149.30 108.86,148.97 110.63,149.18 C112.52,149.41 113.41,150.17 113.65,151.75 ZM 130.98 166.72 C130.97,165.86 130.72,165.90 130.11,166.85 C129.50,167.81 129.13,167.32 128.81,165.14 C128.52,163.18 128.83,161.89 129.68,161.57 C130.41,161.29 131.00,161.58 131.00,162.20 C131.00,162.83 131.69,164.11 132.54,165.05 C133.93,166.58 133.93,166.81 132.54,167.35 C131.68,167.68 130.99,167.40 130.98,166.72 ZM 92.00 152.50 C92.00,153.98 88.93,154.60 87.70,153.37 C86.63,152.30 88.97,149.00 90.79,149.02 C92.26,149.03 92.29,149.17 91.00,150.00 C90.00,150.65 89.92,150.97 90.75,150.98 C91.44,150.99 92.00,151.68 92.00,152.50 ZM 168.36 231.50 C168.05,232.32 166.93,233.00 165.89,233.00 C164.85,233.00 164.00,232.32 164.00,231.50 C164.00,230.57 164.94,230.00 166.47,230.00 C168.25,230.00 168.78,230.42 168.36,231.50 ZM 192.00 126.61 C192.00,127.37 191.32,128.00 190.50,128.00 C189.67,128.00 189.00,127.11 189.00,126.03 C189.00,124.69 189.48,124.25 190.50,124.64 C191.32,124.95 192.00,125.84 192.00,126.61 ZM 166.86 127.70 C165.69,129.15 165.71,129.26 167.00,128.47 C167.82,127.97 169.10,127.46 169.84,127.35 C171.98,127.03 172.16,126.38 170.50,125.00 C169.18,123.91 169.06,123.99 169.65,125.52 C170.09,126.68 169.96,127.09 169.28,126.68 C168.70,126.32 167.61,126.78 166.86,127.70 ZM 110.00 142.00 C110.00,142.55 109.32,143.00 108.50,143.00 C107.68,143.00 107.00,142.55 107.00,142.00 C107.00,141.45 107.68,141.00 108.50,141.00 C109.32,141.00 110.00,141.45 110.00,142.00 ZM 66.02 247.48 C64.58,249.21 64.00,249.39 64.00,248.11 C64.00,247.62 64.74,246.93 65.64,246.58 C67.01,246.06 67.08,246.20 66.02,247.48 ZM 124.00 117.00 C124.00,117.55 123.55,118.00 123.00,118.00 C122.45,118.00 122.00,117.55 122.00,117.00 C122.00,116.45 122.45,116.00 123.00,116.00 C123.55,116.00 124.00,116.45 124.00,117.00 ZM 154.00 190.00 C154.00,190.55 153.55,191.00 153.00,191.00 C152.45,191.00 152.00,190.55 152.00,190.00 C152.00,189.45 152.45,189.00 153.00,189.00 C153.55,189.00 154.00,189.45 154.00,190.00 ZM 198.50 236.00 C197.50,237.10 196.47,238.00 196.19,238.00 C195.92,238.00 196.50,237.10 197.50,236.00 C198.50,234.90 199.53,234.00 199.81,234.00 C200.08,234.00 199.50,234.90 198.50,236.00 ZM 45.46 238.07 C44.60,239.46 44.00,239.20 44.00,237.44 C44.00,236.58 44.46,236.16 45.02,236.51 C45.58,236.86 45.77,237.56 45.46,238.07 ZM 190.98 61.48 C192.42,63.21 192.15,63.38 190.03,62.04 C189.22,61.53 188.82,60.85 189.14,60.53 C189.45,60.21 190.28,60.64 190.98,61.48 Z" fill="rgb(161,176,147)"/>
<path d="M 106.81 180.33 C107.32,179.83 107.63,179.38 107.66,179.16 C107.79,179.27 107.97,179.36 108.21,179.44 C108.92,179.66 110.18,180.07 111.00,180.34 C111.82,180.62 115.67,180.88 119.55,180.92 C126.85,181.00 129.00,180.07 129.00,176.80 C129.00,175.19 127.96,175.00 119.04,175.00 C112.85,175.00 110.41,175.10 109.17,175.75 C109.84,175.29 110.65,175.00 111.41,175.00 C113.22,175.00 113.75,174.45 113.75,172.58 C113.75,171.06 113.06,169.99 111.88,169.68 C110.67,169.36 110.00,168.29 110.00,166.69 L 110.00 164.19 L 110.35 164.21 C109.96,164.50 110.01,165.22 110.17,166.61 C110.46,169.13 111.01,169.58 114.50,170.14 C118.38,170.77 126.72,170.28 128.25,169.34 C128.66,169.09 129.00,168.01 129.00,166.94 C129.00,165.41 128.42,165.07 124.29,165.01 C125.95,164.93 126.03,164.51 125.67,163.57 C125.30,162.62 125.00,161.48 125.00,161.05 C125.00,159.83 108.78,159.16 106.31,160.28 C104.57,161.06 104.24,161.68 104.56,164.85 C104.34,163.77 103.98,162.70 103.47,161.65 C102.67,160.01 101.61,158.62 100.33,157.51 C100.82,157.52 101.38,157.12 102.38,156.28 C104.32,154.63 104.37,154.63 103.11,156.25 C101.68,158.10 102.58,158.55 104.85,157.11 C105.54,156.67 105.81,156.26 105.66,155.55 C106.70,157.20 108.77,159.01 110.26,159.30 C111.49,159.53 115.65,159.78 119.50,159.84 C125.67,159.95 127.07,159.60 131.32,156.94 C136.06,153.96 137.11,151.31 133.40,151.70 C132.35,151.80 129.02,152.41 126.00,153.06 C122.93,153.71 117.61,153.96 113.22,153.67 C113.60,153.32 113.79,152.69 113.65,151.75 C113.41,150.17 112.52,149.41 110.63,149.18 C108.86,148.97 108.05,149.30 108.23,150.14 C108.56,151.70 109.54,152.88 110.58,153.51 C107.37,153.36 105.00,153.47 105.00,153.81 C105.00,153.88 105.01,153.95 105.02,154.03 L 105.01 154.02 C104.36,152.80 104.04,150.96 104.30,149.94 C104.62,148.74 103.95,147.54 102.38,146.52 C101.06,145.65 100.10,145.35 100.24,145.85 C100.38,146.35 99.26,148.15 97.75,149.87 C95.26,152.69 94.51,154.35 95.50,154.84 C92.51,153.93 89.00,153.92 85.25,154.93 C81.88,155.84 80.55,156.92 78.52,160.37 C77.94,161.37 77.40,162.50 76.97,163.57 C77.06,162.34 77.20,161.17 77.35,160.35 C77.75,158.21 77.47,156.80 76.47,155.97 C75.99,155.58 75.64,155.36 75.40,155.32 C78.36,151.47 82.88,149.69 90.33,149.08 C88.61,149.53 86.72,152.39 87.70,153.37 C88.93,154.60 92.00,153.98 92.00,152.50 C92.00,151.68 91.44,150.99 90.75,150.98 C89.92,150.97 90.00,150.65 91.00,150.00 C92.21,149.22 92.26,149.05 91.03,149.02 L 97.50 148.50 L 97.80 141.03 C97.91,138.30 98.08,136.27 98.48,134.69 C98.52,134.93 98.60,135.16 98.73,135.37 C99.08,135.95 99.49,137.50 99.63,138.82 C99.99,142.16 100.33,142.27 102.91,139.87 C104.53,138.36 104.86,137.46 104.08,136.68 C103.49,136.09 103.00,135.26 103.00,134.85 C103.00,134.09 104.67,133.46 107.21,132.98 C102.31,134.07 101.89,135.92 107.58,137.72 C115.77,140.30 133.82,138.45 134.00,135.03 C134.54,135.69 134.74,136.51 134.77,137.72 C134.85,140.44 138.50,145.94 140.25,145.98 C140.60,145.99 140.88,144.17 140.95,141.72 C140.96,142.35 140.97,143.03 140.97,143.75 L 141.00 153.00 L 150.32 153.00 C160.91,153.00 168.29,154.98 170.55,158.44 C170.99,159.10 171.30,160.07 171.52,161.54 C171.17,161.09 170.57,161.00 169.56,161.00 C168.22,161.00 166.86,161.42 166.55,161.92 C166.23,162.43 164.63,163.14 162.98,163.50 C161.33,163.87 160.24,164.58 160.55,165.08 C160.86,165.59 160.47,166.00 159.67,166.00 C158.58,166.00 158.34,166.90 158.71,169.63 C159.22,173.39 158.09,174.95 154.86,174.98 C154.66,174.99 154.47,174.95 154.30,174.89 C154.56,174.90 154.88,174.87 155.25,174.82 C156.70,174.61 157.61,173.70 157.82,172.25 C158.08,170.42 157.66,170.00 155.57,170.00 C153.48,170.00 153.00,170.48 153.00,172.57 C153.00,172.61 153.00,172.65 153.00,172.69 C152.92,172.34 152.86,171.94 152.81,171.50 C152.59,169.57 152.69,168.00 153.03,168.00 C153.38,168.00 153.67,167.32 153.67,166.50 C153.67,165.37 152.46,165.00 148.77,165.00 C145.77,165.00 144.12,165.39 144.50,166.00 C144.84,166.55 144.61,167.00 143.99,167.00 C143.31,167.00 143.46,167.60 144.36,168.50 C145.18,169.32 146.37,170.00 146.99,170.00 C147.24,170.00 147.44,170.17 147.59,170.46 C147.22,170.07 146.46,170.00 145.07,170.00 C142.49,170.00 142.00,170.39 142.00,172.43 C142.00,173.62 142.45,174.59 143.19,175.06 C142.43,174.97 141.53,174.85 140.48,174.70 C138.73,174.46 136.93,174.85 136.19,175.64 C135.45,176.43 135.35,177.00 135.96,177.00 C136.53,177.00 137.00,178.61 137.00,180.57 C137.00,180.67 137.00,180.76 137.00,180.85 C136.98,178.64 136.52,178.00 135.00,178.00 C132.74,178.00 132.27,180.87 134.20,182.80 C134.50,183.10 134.78,183.35 135.03,183.53 C134.94,183.50 134.85,183.47 134.75,183.44 C133.27,182.99 132.53,182.79 132.31,182.33 C132.09,181.90 132.34,181.22 132.87,179.84 C132.91,179.75 132.94,179.65 132.98,179.55 C133.55,178.06 133.76,176.42 133.45,175.92 C133.14,175.41 133.47,174.96 134.19,174.92 C135.21,174.86 135.22,174.73 134.24,174.34 C133.55,174.06 133.21,173.46 133.49,173.02 C133.76,172.57 133.32,171.95 132.49,171.64 C131.67,171.32 131.00,171.53 131.00,172.09 C131.00,172.66 130.53,172.83 129.95,172.47 C129.28,172.05 128.99,173.27 129.15,175.91 C129.32,178.83 129.84,180.00 130.95,180.02 C132.20,180.03 132.24,180.20 131.14,180.89 C130.30,181.43 130.17,181.99 130.80,182.38 C131.36,182.72 131.58,183.89 131.29,184.98 C131.02,186.04 131.49,186.93 132.85,187.73 C132.73,187.68 132.61,187.63 132.50,187.58 C129.97,186.48 125.20,185.72 119.50,185.52 C114.55,185.34 108.88,184.88 106.90,184.49 C104.46,184.01 102.38,184.27 100.39,185.30 C97.61,186.74 94.79,187.50 92.06,187.69 C92.63,187.61 93.24,187.50 93.88,187.38 C97.05,186.74 98.24,185.00 95.50,185.00 C94.68,185.00 94.11,184.48 94.25,183.84 C94.42,183.04 92.77,182.75 89.01,182.92 C82.17,183.24 80.15,184.38 83.16,186.20 C77.36,183.73 72.93,178.51 71.65,172.06 C71.77,172.46 71.91,172.85 72.08,173.20 C73.27,175.73 78.64,179.77 81.00,179.89 C81.82,179.93 81.41,179.41 80.08,178.74 C78.20,177.77 77.36,176.23 77.01,172.23 C78.75,176.68 82.52,180.72 86.62,182.00 C95.77,184.86 104.61,176.81 104.83,167.90 C104.90,170.21 104.51,172.04 103.62,173.77 C101.68,177.51 101.54,179.38 103.25,178.41 C104.25,177.85 104.25,177.98 103.25,179.05 C102.56,179.79 102.00,180.68 102.00,181.03 C102.00,182.19 105.46,181.69 106.81,180.33 ZM 239.11 196.96 C239.37,195.66 238.52,193.53 237.20,191.58 C238.82,193.90 240.00,196.62 240.00,198.61 C240.00,202.94 237.51,206.16 223.83,219.55 C209.15,233.92 200.06,241.90 192.53,246.82 C195.76,244.54 198.08,241.93 197.43,240.89 C196.98,240.16 197.42,240.00 198.73,240.42 C199.94,240.80 201.21,240.45 201.98,239.52 C203.47,237.73 201.95,237.45 200.20,239.20 C198.60,240.80 198.65,238.78 200.25,237.07 C200.94,236.34 200.30,236.50 198.84,237.42 C197.22,238.46 195.95,238.72 195.57,238.12 C195.16,237.45 193.54,238.17 187.18,242.29 C195.60,236.64 202.94,230.10 214.74,218.59 C224.30,209.28 232.55,200.83 233.09,199.83 C234.44,197.31 232.80,194.57 228.99,192.99 C226.51,191.97 225.08,191.96 221.78,192.95 C217.28,194.30 215.24,195.57 203.26,204.50 C198.84,207.80 192.52,212.42 189.24,214.77 C189.04,214.91 188.85,215.04 188.67,215.18 C188.98,214.94 189.29,214.71 189.60,214.50 C192.75,212.30 196.28,209.53 197.44,208.34 C199.62,206.12 200.75,201.42 198.83,202.61 C198.25,202.96 197.46,202.75 197.08,202.13 C196.16,200.64 184.38,210.23 184.83,212.11 C185.02,212.87 184.83,213.16 184.41,212.75 C184.00,212.33 182.85,212.73 181.85,213.64 C180.37,214.97 179.76,215.04 178.52,214.02 C177.48,213.15 177.00,213.11 177.00,213.88 C177.00,214.49 177.45,215.00 178.00,215.00 C179.24,215.00 179.33,219.68 178.10,220.44 C177.60,220.75 176.74,222.30 176.19,223.90 C175.32,226.38 175.42,226.75 176.84,226.48 C177.75,226.30 178.75,226.12 179.07,226.08 C179.38,226.03 180.59,224.31 181.75,222.25 C182.15,221.54 182.84,220.66 183.69,219.72 C183.14,220.67 182.90,221.71 182.70,223.18 C181.98,228.58 179.42,231.97 173.94,234.77 C169.88,236.86 169.03,237.02 152.04,236.57 C159.80,236.50 160.10,236.08 160.89,234.33 C161.80,232.34 161.65,231.96 159.72,231.54 C158.50,231.28 156.15,231.06 154.50,231.06 C141.95,231.02 139.17,231.11 136.74,231.60 C135.22,231.91 134.24,232.58 134.55,233.08 C135.53,234.66 128.94,234.08 127.30,232.45 C125.66,230.81 118.22,230.75 118.84,232.39 C119.02,232.88 118.57,233.66 117.84,234.12 C116.81,234.77 116.91,234.97 118.25,234.98 C119.21,234.99 119.95,235.34 119.88,235.75 C119.58,237.66 120.20,237.98 122.75,237.27 C122.99,237.20 123.41,237.14 124.00,237.08 C123.42,237.21 122.87,237.35 122.31,237.51 C116.18,239.29 113.66,238.38 114.20,234.59 C114.68,231.23 122.01,230.20 146.50,230.08 C161.83,230.00 169.26,229.59 171.00,228.73 C172.38,228.04 174.36,225.73 175.41,223.58 C177.12,220.08 177.17,219.40 175.88,217.10 C175.19,215.86 174.45,214.92 173.42,214.20 C174.30,214.67 174.78,214.85 175.17,214.74 C175.61,214.61 175.95,214.12 176.61,213.25 C178.82,210.34 178.20,208.99 173.75,206.97 C173.29,206.77 172.84,206.58 172.38,206.41 C175.35,207.24 177.36,208.51 179.26,210.40 C181.37,212.51 182.17,212.12 193.81,203.23 C198.59,199.58 204.75,194.89 207.50,192.80 C207.66,192.68 207.82,192.56 207.98,192.44 C205.44,194.43 202.84,197.45 203.88,197.79 C204.50,198.00 204.82,198.49 204.58,198.88 C204.34,199.27 205.02,199.65 206.09,199.73 C207.16,199.81 207.78,199.46 207.46,198.94 C207.14,198.42 207.61,198.00 208.50,198.00 C209.39,198.00 209.84,197.56 209.51,197.01 C209.16,196.44 209.56,196.28 210.45,196.62 C211.30,196.95 212.73,196.94 213.61,196.60 C214.99,196.07 215.03,195.73 213.86,194.30 C212.66,192.82 212.73,192.71 214.44,193.36 C216.31,194.06 216.31,194.00 214.64,192.15 C213.56,190.97 212.11,190.42 210.89,190.74 C210.51,190.84 210.07,191.04 209.59,191.32 C212.12,189.66 215.09,188.03 217.00,187.33 C223.29,184.99 223.34,184.93 225.90,176.79 C227.00,173.28 228.26,169.29 228.92,167.25 C228.83,167.71 228.73,168.10 228.63,168.41 C227.73,171.11 227.00,174.66 227.00,176.30 C227.00,177.94 226.28,179.80 225.41,180.44 C224.53,181.09 223.74,182.82 223.66,184.30 C223.57,185.79 222.91,187.00 222.18,187.00 C220.90,187.00 218.16,189.22 217.71,190.60 C217.60,190.97 218.62,191.68 219.98,192.19 C221.62,192.79 222.58,192.75 222.82,192.05 C223.01,191.47 223.92,190.99 224.83,190.98 C226.27,190.97 226.30,190.84 225.00,190.00 C223.73,189.18 223.78,189.03 225.34,189.02 C227.89,188.99 234.00,194.99 234.00,197.52 C234.00,200.77 236.08,202.33 237.58,200.19 C238.26,199.22 238.95,197.77 239.11,196.96 ZM 188.86 113.72 C188.96,115.25 189.46,115.76 190.50,115.36 C191.60,114.94 192.00,113.20 192.00,108.85 C192.00,103.88 191.60,102.51 189.55,100.45 L 192.00 102.91 L 192.00 140.50 C192.00,180.54 191.79,182.44 187.06,184.97 C186.12,185.47 184.24,185.80 182.31,185.93 C183.74,185.75 184.00,185.16 184.00,183.50 C184.00,181.28 183.61,181.01 180.16,181.00 C180.21,181.00 180.25,181.00 180.30,181.00 C182.66,181.00 185.14,180.46 185.80,179.80 C187.09,178.51 187.55,111.36 186.43,104.26 C186.54,104.46 186.63,104.68 186.69,104.93 C186.97,105.99 187.86,107.11 188.66,107.42 C189.93,107.91 189.92,108.28 188.56,110.21 C187.70,111.44 187.06,114.03 187.14,115.97 L 187.28 119.50 L 188.00 115.50 C188.39,113.30 188.78,112.50 188.86,113.72 ZM 56.64 244.74 C56.14,245.58 56.39,245.79 57.44,245.38 C58.29,245.06 58.76,244.43 58.49,243.98 C58.21,243.54 58.43,243.02 58.96,242.84 C59.53,242.64 59.58,242.01 59.11,241.18 C63.40,243.82 78.74,250.63 83.99,252.16 C97.05,255.98 118.13,261.14 126.50,262.56 C140.26,264.90 146.12,264.07 162.35,256.09 C161.09,256.98 160.22,257.95 160.31,258.43 C160.41,259.02 159.38,259.53 158.00,259.57 C156.62,259.61 152.42,260.67 148.66,261.93 C142.73,263.92 140.71,264.13 133.38,263.52 C124.26,262.76 123.65,263.18 127.50,267.53 C129.84,270.17 132.00,270.64 132.00,268.50 C132.00,266.83 138.29,266.52 145.50,267.85 C147.45,268.21 150.84,267.78 153.83,267.02 C152.94,267.34 152.00,267.66 151.00,268.00 C142.07,271.02 136.67,271.12 122.50,268.55 C118.36,267.79 114.35,267.00 110.48,266.17 C112.80,266.47 115.22,266.56 117.50,266.34 C120.80,266.03 123.62,265.67 123.77,265.53 C123.92,265.40 123.79,264.61 123.47,263.78 C122.65,261.66 111.71,259.08 104.25,259.26 C100.81,259.34 98.01,259.65 98.03,259.95 C98.14,261.81 100.82,263.60 104.55,264.84 C93.39,262.22 83.49,259.25 74.91,255.96 C76.20,256.28 76.67,256.08 76.82,255.42 C77.00,254.64 78.13,253.97 79.32,253.93 C81.43,253.86 81.43,253.83 79.50,253.00 C78.13,252.41 77.97,252.11 79.00,252.03 C79.87,251.97 79.34,251.29 77.73,250.42 C76.20,249.59 74.49,249.20 73.93,249.54 C73.37,249.89 71.84,249.47 70.53,248.61 C68.34,247.18 67.97,247.21 65.83,248.94 C64.66,249.89 63.87,250.85 63.95,251.22 C60.33,249.45 57.03,247.60 54.08,245.67 C51.72,244.13 48.35,241.51 45.03,238.66 C45.16,238.51 45.30,238.32 45.46,238.07 C45.77,237.56 45.58,236.86 45.02,236.51 C44.46,236.16 44.00,236.58 44.00,237.44 C44.00,237.56 44.00,237.67 44.01,237.78 C41.82,235.87 39.69,233.90 37.92,232.12 C37.29,231.48 36.66,230.85 36.05,230.21 C39.33,233.18 42.74,235.50 44.17,235.50 C45.09,235.50 46.50,237.00 46.50,237.97 C46.50,238.41 48.27,240.39 50.42,242.37 C53.67,245.34 54.61,245.75 55.86,244.73 C57.07,243.76 57.23,243.76 56.64,244.74 ZM 124.00 117.00 C124.00,116.45 123.55,116.00 123.00,116.00 C122.56,116.00 122.19,116.28 122.06,116.67 C122.02,115.43 122.00,113.92 122.00,112.08 C122.00,99.68 123.18,98.00 131.88,98.00 C137.09,98.00 137.79,97.75 138.81,95.52 C139.64,93.70 141.00,92.86 143.86,92.41 C146.55,91.98 148.44,90.90 149.86,88.98 C153.54,84.00 161.56,84.29 164.41,89.50 C165.04,90.65 165.60,91.44 166.27,91.98 C166.02,91.83 165.81,91.67 165.64,91.50 C163.77,89.62 163.00,89.60 163.00,91.42 C163.00,92.20 162.47,93.01 161.82,93.23 C161.22,93.43 160.89,93.71 160.80,94.04 C158.44,88.98 154.47,88.39 153.20,93.32 C152.47,96.18 151.96,96.53 148.19,96.81 C144.14,97.10 144.00,97.23 144.00,100.56 L 144.00 101.09 C144.00,99.39 143.55,98.00 143.00,98.00 C142.45,98.00 141.99,98.56 141.98,99.25 C141.97,100.08 141.65,100.00 141.00,99.00 C139.27,96.32 139.94,99.10 142.24,104.11 L 144.37 108.75 C142.32,108.65 140.93,108.53 140.58,108.39 C139.71,108.06 139.00,106.71 139.00,105.39 C139.00,103.16 138.63,103.00 133.56,103.00 C130.57,103.00 127.89,103.37 127.61,103.81 C127.34,104.26 127.02,108.55 126.92,113.34 C126.72,122.32 126.31,123.44 123.59,122.40 C122.65,122.04 122.24,120.96 122.08,117.40 C122.24,117.75 122.59,118.00 123.00,118.00 C123.55,118.00 124.00,117.55 124.00,117.00 ZM 151.95 188.59 C153.02,186.60 153.01,185.92 151.88,184.72 C150.74,183.50 150.20,183.48 148.49,184.60 C147.84,185.02 147.17,185.30 146.52,185.44 C147.23,185.12 147.50,184.32 147.50,182.92 C147.50,181.32 147.08,180.65 145.65,180.33 C150.98,181.13 157.00,179.98 157.03,178.12 C157.06,176.72 157.20,176.74 158.09,178.27 C158.66,179.25 159.55,179.78 160.06,179.46 C160.58,179.14 161.00,179.81 161.00,180.94 C161.00,182.07 161.45,183.00 162.00,183.00 C162.55,183.00 163.00,181.88 163.00,180.50 C163.00,179.12 163.42,178.00 163.94,178.00 C164.45,178.00 164.81,177.10 164.73,176.00 C164.64,174.90 164.22,174.00 163.79,174.00 C162.18,174.00 162.99,167.94 164.69,167.29 C165.64,166.93 166.55,167.16 166.78,167.83 C166.78,167.85 166.79,167.87 166.80,167.90 C166.51,167.35 166.00,167.04 165.25,167.18 C164.09,167.41 163.39,168.63 163.18,170.83 C162.89,173.90 163.01,174.06 164.93,173.04 C166.75,172.06 167.45,169.45 166.88,168.06 C167.14,168.54 167.65,168.72 168.09,168.45 C168.59,168.14 169.00,168.34 169.00,168.91 C169.00,169.47 169.68,169.68 170.50,169.36 C171.20,169.09 171.66,168.23 171.87,166.84 C171.90,168.29 171.90,169.97 171.88,171.91 C171.75,184.86 170.58,187.26 163.50,189.20 C161.41,189.78 157.77,190.20 153.90,190.42 C153.97,190.30 154.00,190.15 154.00,190.00 C154.00,189.45 153.55,189.00 153.00,189.00 C152.45,189.00 152.00,189.45 152.00,190.00 C152.00,190.19 152.05,190.36 152.14,190.51 C151.24,190.55 150.34,190.58 149.46,190.59 C150.64,190.23 151.43,189.56 151.95,188.59 ZM 209.97 232.35 C211.35,230.88 211.33,230.78 209.75,231.33 C208.79,231.66 208.00,231.57 208.00,231.12 C208.00,229.80 211.25,227.42 215.00,226.02 C216.93,225.29 222.36,220.92 227.07,216.30 C234.57,208.95 235.59,207.54 235.22,205.02 C234.98,203.43 234.23,201.92 233.53,201.65 C231.65,200.93 219.59,213.48 220.32,215.39 C220.99,217.13 216.97,220.56 216.03,219.05 C215.72,218.55 212.44,221.08 208.73,224.67 C202.46,230.76 200.60,232.99 203.00,231.50 C204.34,230.67 204.28,232.32 202.92,233.68 C202.15,234.45 202.78,234.65 205.14,234.37 C206.96,234.16 209.13,233.25 209.97,232.35 ZM 37.00 85.44 C37.00,84.71 36.55,83.84 35.99,83.50 C34.18,82.37 37.04,74.00 39.24,74.00 C39.66,74.00 40.00,73.31 40.00,72.46 C40.00,71.65 40.87,69.27 41.96,67.09 C37.75,78.03 34.00,99.71 34.01,113.78 C34.03,143.75 46.02,175.84 64.23,194.64 L 69.21 199.78 L 77.36 196.97 C79.05,196.38 80.72,195.87 82.37,195.43 C75.93,197.25 69.89,199.76 69.45,201.17 C69.13,202.18 68.42,203.00 67.87,203.00 C67.33,203.00 67.16,202.55 67.50,202.00 C67.84,201.45 67.57,201.00 66.89,201.00 C66.22,201.00 65.97,200.70 66.34,200.33 C66.70,199.96 66.36,198.95 65.57,198.08 C64.79,197.21 64.12,196.15 64.10,195.73 C64.00,193.92 56.43,186.00 55.24,186.46 C53.68,187.06 49.69,180.91 50.87,179.73 C51.32,179.28 49.72,174.99 47.31,170.20 C44.90,165.42 41.52,156.89 39.80,151.25 C38.07,145.61 36.16,141.00 35.54,141.00 C34.93,141.00 34.35,140.21 34.26,139.25 C34.16,138.29 33.78,135.99 33.41,134.14 C32.96,131.85 33.15,130.52 34.03,129.98 C35.05,129.35 34.98,128.83 33.66,127.52 C31.86,125.71 31.38,121.00 33.00,121.00 C33.56,121.00 34.00,118.17 34.00,114.50 C34.00,109.40 33.68,108.00 32.51,108.00 C31.39,108.00 31.05,106.93 31.18,103.75 C31.28,101.41 31.26,96.80 31.15,93.50 C30.85,84.96 29.43,88.28 27.96,100.96 L 27.96 100.96 C28.45,95.94 29.17,90.88 30.08,86.35 C30.10,86.83 30.35,86.90 30.84,86.60 C31.48,86.20 32.00,86.30 32.00,86.80 C32.00,87.31 33.12,87.51 34.50,87.24 C35.88,86.98 37.00,86.17 37.00,85.44 ZM 32.94 72.84 C33.31,69.39 32.34,69.38 29.91,72.58 L 27.25 70.83 C25.76,69.86 24.22,69.38 23.84,69.78 C23.82,69.80 23.80,69.82 23.77,69.85 C28.19,62.30 32.45,56.70 39.87,48.32 C48.52,38.54 51.23,36.80 53.79,39.36 C55.56,41.13 55.45,41.42 49.48,51.50 C47.53,54.80 45.69,58.17 45.40,59.00 C45.14,59.72 44.23,61.87 43.25,64.05 C43.55,63.01 43.53,62.33 43.16,62.10 C41.68,61.18 42.24,57.74 44.16,55.96 C45.07,55.12 46.03,53.02 46.30,51.31 C46.92,47.39 48.10,45.50 49.92,45.50 C51.75,45.50 52.23,43.90 50.98,42.00 C50.11,40.67 49.89,40.67 49.02,42.00 C48.47,42.83 48.01,43.05 47.98,42.50 C47.96,41.95 47.48,42.29 46.92,43.26 C46.35,44.22 46.14,45.42 46.44,45.90 C46.74,46.39 46.27,47.07 45.39,47.40 C44.45,47.76 44.04,48.65 44.38,49.56 C44.72,50.43 44.55,50.84 44.01,50.51 C43.48,50.18 42.02,50.47 40.77,51.17 C39.52,51.86 38.18,52.33 37.79,52.22 C37.39,52.11 37.33,52.69 37.64,53.51 C37.96,54.33 37.82,55.00 37.33,55.00 C36.85,55.00 35.61,56.58 34.57,58.50 C32.83,61.72 32.32,62.14 30.29,61.93 C29.44,61.84 28.17,64.84 28.07,67.16 C28.03,68.22 28.63,68.70 29.75,68.49 C30.71,68.30 31.89,68.12 32.37,68.08 C32.85,68.03 32.77,67.42 32.18,66.72 C31.55,65.96 31.47,64.86 31.97,64.04 C32.99,62.39 37.00,61.57 37.00,63.01 C37.00,63.55 36.62,64.00 36.16,64.00 C35.39,64.00 34.22,67.24 32.94,72.84 ZM 121.00 143.00 C121.00,142.45 119.31,141.96 117.25,141.90 C114.23,141.82 113.96,141.67 115.86,141.14 C117.91,140.56 117.58,140.30 113.48,139.21 C110.87,138.51 108.47,138.20 108.14,138.52 C107.32,139.35 110.26,141.07 111.64,140.56 C112.33,140.31 112.58,140.90 112.27,142.07 C112.11,142.68 112.07,143.09 112.27,143.38 C111.09,143.27 109.95,143.13 108.86,142.97 C109.51,142.86 110.00,142.47 110.00,142.00 C110.00,141.45 109.32,141.00 108.50,141.00 C107.68,141.00 107.00,141.45 107.00,142.00 C107.00,142.30 107.20,142.57 107.51,142.75 C106.89,142.64 106.30,142.52 105.75,142.40 C103.43,141.87 103.00,142.09 103.00,143.85 C103.00,146.41 106.08,148.20 112.00,149.07 C114.47,149.43 117.62,149.79 119.00,149.85 C123.40,150.06 133.36,147.23 134.71,145.39 C136.83,142.49 134.74,141.62 128.94,143.01 C126.73,143.55 123.23,143.78 119.44,143.75 C120.40,143.56 121.00,143.30 121.00,143.00 ZM 140.34 163.92 C145.42,165.14 161.10,164.55 163.94,163.03 C166.46,161.68 166.59,160.13 164.25,159.37 C163.29,159.06 161.82,158.57 161.00,158.27 C158.49,157.38 140.72,158.03 137.20,159.14 C134.58,159.97 134.14,160.46 135.04,161.55 C135.67,162.30 138.05,163.37 140.34,163.92 ZM 180.34 56.85 C179.24,55.61 179.17,55.02 180.06,54.46 C180.93,53.93 180.80,53.47 179.61,52.80 C178.70,52.29 178.22,51.46 178.53,50.95 C178.85,50.43 178.62,49.22 178.03,48.26 C177.52,47.44 177.26,47.04 177.16,47.09 C179.77,44.22 181.12,39.42 180.86,34.63 C180.95,35.32 181.00,35.95 181.00,36.51 C181.00,40.82 183.22,46.00 185.08,46.00 C185.27,46.00 185.54,45.67 185.83,45.12 C185.17,46.86 184.36,48.43 183.41,49.68 C182.08,51.43 181.00,53.08 181.00,53.34 C181.00,53.60 182.91,54.93 185.25,56.31 C194.25,61.59 203.61,69.65 211.60,78.75 C210.29,77.28 208.93,75.81 207.50,74.33 C201.64,68.27 198.62,66.98 197.07,69.88 C196.16,71.57 196.92,72.81 202.50,78.67 C203.93,80.18 205.33,81.74 206.72,83.39 C201.01,76.96 194.22,70.99 187.02,65.99 C189.89,67.83 192.77,69.34 193.08,68.85 C193.40,68.35 194.35,68.20 195.20,68.53 C196.34,68.96 196.72,68.51 196.62,66.81 C196.49,64.27 194.56,62.54 192.96,63.52 C192.40,63.87 190.04,63.06 187.72,61.72 C183.71,59.40 181.00,59.13 181.00,61.04 C181.00,61.57 182.59,62.93 184.62,64.38 C178.18,60.15 171.46,56.72 164.92,54.43 C167.87,55.40 170.59,56.48 173.00,57.63 C176.21,59.17 177.86,59.50 178.77,58.75 C179.75,57.96 179.88,58.15 179.33,59.58 C178.70,61.23 178.79,61.27 180.22,59.97 C181.63,58.67 181.64,58.31 180.34,56.85 ZM 157.36 205.02 C157.22,205.02 157.09,205.02 156.95,205.02 C148.69,205.01 144.00,205.40 143.23,206.17 C142.34,207.06 141.13,206.91 138.14,205.56 C135.97,204.58 133.33,204.08 132.22,204.43 C131.01,204.82 129.60,204.46 128.68,203.54 C126.67,201.53 124.00,202.62 124.00,205.45 C124.00,206.51 124.33,207.21 125.26,207.79 C123.34,207.16 121.41,206.45 119.42,205.65 C114.94,203.86 111.48,202.59 108.46,201.71 C111.42,202.53 114.20,203.22 114.89,203.31 C117.58,203.67 117.07,201.17 113.85,198.15 C111.94,196.37 108.58,194.96 104.66,194.10 C110.03,194.94 115.55,196.62 121.50,199.15 C132.49,203.83 139.00,204.97 155.00,205.01 C155.82,205.01 156.60,205.01 157.36,205.02 ZM 216.84 142.46 C216.86,142.41 216.88,142.36 216.90,142.32 C216.80,142.60 216.69,142.90 216.56,143.20 C215.38,146.00 215.41,146.98 216.76,150.36 C218.24,154.05 218.22,154.37 216.47,155.64 C215.45,156.39 214.25,157.00 213.79,157.00 C212.22,157.00 209.01,150.48 209.00,147.28 C209.00,145.01 209.63,142.63 210.58,140.73 C210.31,141.73 210.45,142.67 211.20,143.14 C211.91,143.60 212.05,143.98 211.50,144.00 C210.95,144.02 211.13,144.43 211.91,144.92 C213.86,146.16 215.53,145.32 216.84,142.46 ZM 149.00 157.00 C149.00,156.45 150.46,155.97 152.25,155.93 C154.04,155.89 156.37,155.52 157.43,155.10 C161.07,153.68 157.12,152.79 148.69,153.14 C144.18,153.33 139.90,153.10 139.16,152.63 C138.37,152.12 137.38,152.22 136.73,152.87 C134.79,154.81 139.71,158.00 144.65,158.00 C147.04,158.00 149.00,157.55 149.00,157.00 ZM 131.14 43.04 C144.37,42.72 157.97,44.61 168.85,48.63 C172.98,50.16 173.33,50.14 175.85,48.28 C176.30,47.94 176.73,47.55 177.13,47.12 C177.07,47.24 177.11,47.70 177.23,48.50 C177.42,49.92 176.85,50.59 175.24,50.82 C173.99,51.00 173.23,51.56 173.54,52.07 C173.86,52.58 173.63,53.00 173.03,53.00 C172.43,53.00 171.72,52.44 171.46,51.75 C171.19,51.06 169.97,50.44 168.73,50.37 C167.50,50.30 164.06,49.07 161.09,47.64 C154.65,44.53 149.44,43.41 147.74,44.76 C147.06,45.30 145.60,45.55 144.50,45.32 C143.40,45.09 140.36,44.93 137.75,44.97 C135.14,45.01 133.00,44.58 133.00,44.02 C133.00,43.52 132.29,43.20 131.14,43.04 ZM 159.00 265.05 C159.41,264.78 159.67,264.51 159.77,264.25 C160.37,262.57 161.68,261.31 165.00,259.23 C167.23,257.83 167.88,257.03 166.78,257.02 C165.60,257.01 165.26,256.49 165.70,255.35 C165.91,254.79 166.00,254.45 165.89,254.32 C166.28,254.13 166.68,253.92 167.08,253.72 C174.24,250.07 179.80,247.04 184.82,243.84 C183.37,244.79 181.74,245.88 179.88,247.11 C178.45,248.07 175.52,249.62 173.38,250.54 C171.25,251.47 170.06,252.44 170.75,252.69 C171.44,252.95 172.00,253.61 172.00,254.14 C172.00,254.68 171.48,254.80 170.85,254.40 C170.11,253.95 169.96,254.13 170.45,254.91 C170.86,255.59 171.82,255.90 172.57,255.61 C173.32,255.32 174.19,255.50 174.50,256.00 C174.75,256.41 176.38,255.88 178.39,254.81 C177.06,255.56 175.67,256.36 174.30,257.15 C167.55,261.04 163.49,263.19 159.00,265.05 ZM 14.00 176.04 C14.00,175.47 13.31,175.00 12.46,175.00 C11.24,175.00 10.95,173.82 11.07,169.25 C11.13,167.01 11.01,162.05 10.79,156.76 C11.82,166.78 14.02,177.45 16.68,185.68 C15.78,183.79 14.87,183.02 13.44,182.74 C9.97,182.08 9.43,184.98 11.82,191.62 C10.09,186.97 8.56,182.05 7.22,176.83 C7.70,178.11 8.21,179.07 8.76,179.62 C10.08,180.94 10.47,180.88 12.13,179.10 C13.16,177.99 14.00,176.61 14.00,176.04 ZM 33.36 217.20 C39.49,224.83 48.49,233.42 57.49,240.05 C55.29,239.29 51.61,239.35 50.77,240.50 C50.34,241.08 50.02,240.84 50.02,239.92 C50.01,239.06 48.89,237.30 47.53,236.03 C46.17,234.75 45.25,233.41 45.47,233.04 C45.70,232.68 43.00,229.03 39.47,224.94 C37.59,222.76 35.37,219.93 33.36,217.20 ZM 169.49 129.98 C169.14,129.42 168.37,129.27 167.78,129.64 C167.14,130.03 166.98,129.85 167.38,129.20 C167.76,128.59 168.75,128.35 169.60,128.68 C170.36,128.97 171.88,128.15 173.43,126.91 C172.05,128.41 170.33,130.18 168.23,132.27 C167.04,133.45 165.89,134.59 164.82,135.64 C166.40,133.78 165.75,133.53 162.99,135.00 C161.68,135.70 160.91,135.66 160.41,134.85 C159.93,134.08 160.13,133.96 161.00,134.50 C161.85,135.02 162.07,134.92 161.62,134.20 C161.24,133.59 160.25,133.35 159.40,133.68 C159.22,133.75 158.99,133.76 158.73,133.73 L 166.33 126.17 C167.74,124.77 168.97,123.58 170.05,122.58 C167.45,125.34 165.29,128.65 166.14,129.67 C167.42,131.21 170.42,131.50 169.49,129.98 ZM 154.42 51.65 C143.39,49.52 130.24,49.00 119.85,50.25 C120.73,50.12 121.59,50.00 122.40,49.90 C128.20,49.20 131.79,48.30 132.30,47.40 C133.49,45.32 139.94,45.63 141.88,47.86 C142.90,49.03 146.09,50.16 150.50,50.91 C151.82,51.13 153.13,51.38 154.42,51.65 ZM 141.14 168.00 C141.68,168.00 141.86,167.59 141.55,167.09 C141.24,166.58 141.50,166.00 142.12,165.79 C142.75,165.58 141.62,164.91 139.63,164.30 C137.63,163.69 136.23,163.56 136.50,164.01 C136.78,164.46 136.47,165.01 135.80,165.23 C134.94,165.52 134.96,166.01 135.89,167.11 C135.65,167.03 135.35,167.00 135.00,167.00 C132.55,167.00 132.30,170.16 134.57,172.43 C136.78,174.63 137.00,174.46 137.00,170.50 C137.00,169.24 136.93,168.41 136.70,167.88 C137.43,168.40 138.28,168.66 138.83,168.47 C139.56,168.21 140.60,168.00 141.14,168.00 ZM 104.25 53.89 C98.76,55.33 98.11,54.93 97.53,53.11 C96.55,50.02 97.34,49.37 104.97,47.01 C109.86,45.50 115.24,44.41 120.84,43.76 C117.52,44.39 114.54,45.32 113.51,46.35 C112.55,47.30 110.09,48.05 107.68,48.12 C105.38,48.18 102.83,48.29 102.02,48.37 C100.33,48.52 99.28,52.00 100.93,52.00 C101.52,52.00 102.00,52.61 102.00,53.37 C102.00,54.11 102.51,54.30 104.25,53.89 ZM 234.34 121.56 C236.39,129.28 237.63,137.01 237.80,143.63 C237.60,142.56 237.11,141.96 236.24,141.21 C234.67,139.84 234.13,137.97 233.88,132.97 C233.70,129.41 233.90,125.95 234.32,125.27 C234.69,124.68 234.69,123.42 234.34,121.56 ZM 51.71 190.09 C51.94,190.39 52.17,190.69 52.40,190.98 C60.46,201.23 63.48,203.50 69.11,203.52 C71.73,203.53 74.17,203.84 74.53,204.20 C74.89,204.56 77.28,203.95 79.84,202.85 C80.84,202.42 82.11,202.02 83.56,201.67 C81.39,202.28 79.21,203.15 76.45,204.43 C67.80,208.42 67.61,208.39 61.42,201.83 C57.93,198.12 54.69,194.20 51.71,190.09 ZM 165.00 187.97 C165.00,187.53 164.44,186.90 163.75,186.57 C163.06,186.25 163.54,186.17 164.81,186.41 C166.71,186.77 166.91,186.59 165.93,185.42 C164.48,183.67 161.01,183.55 160.98,185.25 C160.97,186.15 160.73,186.11 160.09,185.12 C159.36,183.96 158.84,184.00 156.89,185.37 L 154.55 187.00 L 157.53 187.12 C159.70,187.20 159.96,187.37 158.50,187.75 C156.55,188.26 156.55,188.29 158.43,188.96 C160.70,189.77 165.00,189.12 165.00,187.97 ZM 126.48 102.90 C125.98,100.05 126.07,99.92 127.54,101.40 C129.35,103.21 131.00,103.50 131.00,102.00 C131.00,101.45 132.24,100.95 133.75,100.88 L 136.50 100.76 L 130.50 99.32 L 134.00 98.82 C137.12,98.37 136.97,98.30 132.69,98.16 C129.24,98.05 128.09,98.33 128.61,99.17 C129.08,99.94 128.79,100.14 127.76,99.74 C126.86,99.39 125.45,99.95 124.46,101.05 C123.04,102.61 122.95,103.24 123.98,104.48 C126.01,106.92 127.07,106.24 126.48,102.90 ZM 178.95 27.12 C177.73,24.68 175.23,20.42 172.87,16.81 C167.45,8.54 166.95,5.50 171.01,5.50 C172.76,5.50 174.14,6.69 177.30,11.30 C175.13,8.29 173.16,6.00 172.45,6.00 C171.59,6.00 171.14,6.41 171.45,6.91 C171.76,7.42 171.50,8.00 170.88,8.21 C170.14,8.45 170.00,9.72 170.47,11.86 C170.95,14.07 171.64,14.97 172.57,14.61 C174.37,13.92 177.27,16.86 176.57,18.68 C176.27,19.47 177.14,22.77 178.51,26.02 C178.66,26.38 178.81,26.75 178.95,27.12 ZM 185.58 103.46 C184.56,103.24 182.58,103.00 180.52,102.85 C176.18,102.55 175.49,102.76 175.18,104.50 C175.13,104.82 175.06,105.12 174.98,105.40 C175.10,104.62 174.81,104.00 174.00,104.00 C173.45,104.00 173.00,104.45 173.00,105.00 C173.00,105.55 172.52,106.00 171.94,106.00 C171.36,106.00 171.16,105.55 171.50,105.00 C172.18,103.90 172.25,103.77 161.39,103.92 C165.82,103.76 167.51,103.34 168.43,102.43 C170.47,100.39 170.42,98.68 168.61,97.76 C170.61,98.28 172.08,99.11 172.99,100.24 C173.99,101.47 175.42,102.53 176.16,102.59 C176.90,102.65 179.45,102.76 181.84,102.85 C183.69,102.91 184.84,103.08 185.58,103.46 ZM 153.70 185.37 C155.18,186.85 157.51,185.36 157.82,182.74 C158.09,180.38 157.77,180.00 155.57,180.00 C153.54,180.00 153.00,180.50 153.00,182.33 C153.00,183.62 153.32,184.98 153.70,185.37 ZM 163.00 181.07 C163.00,183.46 163.39,184.07 164.75,183.81 C165.81,183.61 166.63,182.39 166.82,180.74 C167.07,178.54 166.73,178.00 165.07,178.00 C163.43,178.00 163.00,178.63 163.00,181.07 ZM 130.98 166.72 C130.99,167.40 131.68,167.68 132.54,167.35 C133.93,166.81 133.93,166.58 132.54,165.05 C131.69,164.11 131.00,162.83 131.00,162.20 C131.00,161.58 130.41,161.29 129.68,161.57 C128.83,161.89 128.52,163.18 128.81,165.14 C129.13,167.32 129.50,167.81 130.11,166.85 C130.72,165.90 130.97,165.86 130.98,166.72 ZM 25.92 78.56 C23.58,82.50 22.19,86.35 17.08,101.08 C13.80,110.51 11.76,119.12 10.78,128.20 C11.36,121.15 12.39,114.99 13.72,111.30 C15.09,107.48 15.09,106.94 13.62,105.48 C11.50,103.36 11.57,102.73 13.86,103.45 C15.43,103.95 16.23,102.65 19.11,94.88 C20.97,89.84 22.95,84.54 23.50,83.11 C23.89,82.09 24.86,80.29 25.92,78.56 ZM 157.12 139.23 C156.18,137.46 156.38,137.32 159.38,137.65 C161.23,137.85 162.52,137.61 163.62,136.80 C160.44,139.89 158.15,142.00 157.96,142.00 C157.31,142.00 155.30,139.97 153.35,137.64 C157.52,142.05 158.96,142.66 157.12,139.23 ZM 7.85 107.16 C10.12,98.36 13.38,89.87 17.79,81.00 C15.60,85.59 13.44,90.50 12.42,93.43 L 12.41 93.43 C10.46,99.02 9.89,100.65 10.20,100.84 C10.33,100.92 10.60,100.75 10.99,100.50 L 10.99 100.50 C11.57,100.15 11.90,100.97 11.77,102.47 C11.64,104.13 11.10,104.87 10.25,104.54 C9.35,104.20 8.63,104.85 7.85,107.16 ZM 168.36 231.50 C168.78,230.42 168.25,230.00 166.47,230.00 C164.94,230.00 164.00,230.57 164.00,231.50 C164.00,232.32 164.85,233.00 165.89,233.00 C166.93,233.00 168.05,232.32 168.36,231.50 ZM 230.71 141.10 C230.60,138.01 230.37,135.29 230.03,133.39 C229.26,129.17 228.46,125.41 227.57,121.95 C228.55,125.20 229.58,127.99 229.99,128.49 C230.59,129.21 230.79,134.53 230.71,141.10 ZM 192.00 126.61 C192.00,125.84 191.32,124.95 190.50,124.64 C189.48,124.25 189.00,124.69 189.00,126.03 C189.00,127.11 189.67,128.00 190.50,128.00 C191.32,128.00 192.00,127.37 192.00,126.61 ZM 166.86 127.70 C167.61,126.78 168.70,126.32 169.28,126.68 C169.96,127.09 170.09,126.68 169.65,125.52 C169.06,123.99 169.18,123.91 170.50,125.00 C172.16,126.38 171.98,127.03 169.84,127.35 C169.10,127.46 167.82,127.97 167.00,128.47 C165.71,129.26 165.69,129.15 166.86,127.70 ZM 72.93 159.83 C73.52,158.32 74.20,157.01 75.00,155.86 L 75.00 155.88 C75.00,156.49 75.45,157.00 76.00,157.00 C76.55,157.00 77.00,157.48 77.00,158.07 C77.00,158.65 76.17,158.87 75.16,158.55 C74.33,158.29 73.57,158.82 72.93,159.83 ZM 5.29 168.54 C3.91,161.89 3.63,157.63 3.60,146.90 C3.76,154.83 4.35,162.54 5.29,168.54 ZM 66.02 247.48 C67.08,246.20 67.01,246.06 65.64,246.58 C64.74,246.93 64.00,247.62 64.00,248.11 C64.00,249.39 64.58,249.21 66.02,247.48 ZM 198.50 236.00 C199.50,234.90 200.08,234.00 199.81,234.00 C199.53,234.00 198.50,234.90 197.50,236.00 C196.50,237.10 195.92,238.00 196.19,238.00 C196.47,238.00 197.50,237.10 198.50,236.00 ZM 190.98 61.48 C190.28,60.64 189.45,60.21 189.14,60.53 C188.82,60.85 189.22,61.53 190.03,62.04 C192.15,63.38 192.42,63.21 190.98,61.48 ZM 27.31 110.32 C26.89,127.59 30.46,146.49 36.98,163.19 C31.78,150.10 28.55,135.78 27.42,120.50 C27.20,117.54 27.17,114.06 27.31,110.32 ZM 224.26 111.56 C222.60,107.31 220.61,103.32 218.11,99.14 C218.60,99.91 219.10,100.69 219.61,101.50 C221.15,103.97 222.72,107.36 224.26,111.56 ZM 155.87 104.00 L 144.00 104.18 L 144.00 104.00 L 155.43 104.00 C155.58,104.00 155.72,104.00 155.87,104.00 ZM 161.29 95.23 C161.96,95.91 163.22,96.58 164.81,97.00 C164.67,97.00 164.53,97.00 164.39,97.00 C162.96,97.00 161.67,96.27 161.30,95.25 ZM 186.60 28.32 C187.65,30.26 187.97,33.43 187.68,36.84 C187.77,33.60 187.38,30.15 186.60,28.32 ZM 99.42 132.42 C100.63,130.52 102.77,129.56 106.62,128.42 C103.36,129.39 100.75,130.91 99.42,132.42 ZM 113.39 164.42 L 118.17 164.75 C119.96,164.87 121.37,164.96 122.45,165.00 C119.19,164.99 115.28,164.74 113.39,164.42 ZM 188.50 249.19 C188.79,249.05 189.08,248.91 189.37,248.75 C188.50,249.25 187.65,249.71 186.80,250.14 C185.79,250.64 182.91,252.24 179.48,254.19 C179.58,254.13 179.68,254.07 179.78,254.00 C182.38,252.41 186.30,250.24 188.50,249.19 ZM 98.97 156.46 C98.02,155.83 96.98,155.33 95.86,154.96 C96.01,154.99 96.18,155.00 96.38,155.00 C97.12,155.00 98.27,155.65 98.97,156.46 ZM 12.79 194.14 C15.39,200.54 18.38,206.48 21.86,212.11 C18.35,206.51 15.35,200.57 12.79,194.14 ZM 170.33 108.48 C167.95,108.86 164.37,108.97 158.95,109.00 C163.45,108.97 167.67,108.77 170.33,108.48 ZM 111.44 51.85 C111.29,51.89 111.15,51.93 111.00,51.97 C108.74,52.63 106.88,53.17 105.35,53.59 C105.99,53.40 106.75,53.16 107.65,52.87 C108.62,52.55 109.94,52.20 111.44,51.85 ZM 172.11 213.48 C170.64,212.84 168.66,212.46 165.80,212.25 C169.01,212.47 170.98,212.85 172.00,213.42 ZM 144.59 180.17 C142.41,179.93 142.01,180.27 142.00,182.29 C142.00,182.28 142.00,182.26 142.00,182.25 C142.00,180.17 142.24,179.84 144.59,180.17 ZM 122.51 132.08 C125.47,132.19 128.17,132.47 130.06,132.96 C128.07,132.53 125.46,132.22 122.51,132.08 ZM 237.75 147.83 C237.70,148.73 237.63,149.61 237.53,150.45 C237.38,151.72 237.24,153.10 237.14,154.40 C237.25,152.89 237.40,151.26 237.56,149.74 C237.63,149.03 237.70,148.40 237.75,147.83 ZM 176.51 118.65 C177.30,118.99 177.76,119.44 177.83,120.11 C177.58,119.51 177.09,118.96 176.51,118.65 ZM 222.41 93.06 C222.68,93.48 222.94,93.90 223.20,94.33 C224.40,96.27 225.55,98.38 226.64,100.60 C225.36,98.04 223.95,95.53 222.41,93.06 ZM 178.15 185.84 C177.43,185.73 176.90,185.56 176.67,185.33 C176.54,185.21 176.43,185.00 176.33,184.73 C176.63,185.33 177.19,185.66 178.15,185.84 ZM 138.24 189.62 C138.79,189.76 139.38,189.89 140.00,190.02 C140.49,190.13 140.95,190.22 141.40,190.31 C140.88,190.24 140.40,190.17 140.00,190.08 C139.50,189.97 138.89,189.81 138.24,189.62 ZM 22.00 199.78 C22.00,200.87 22.67,202.31 23.49,202.99 C23.99,203.40 24.93,204.65 25.97,206.22 C24.81,204.55 23.85,203.29 23.42,202.93 C22.64,202.28 22.00,200.87 22.00,199.78 ZM 149.02 130.49 C149.04,131.03 149.19,131.64 149.48,132.31 C149.18,131.76 149.00,131.33 149.00,131.07 C149.00,130.87 149.01,130.67 149.02,130.49 ZM 147.85 172.36 C147.84,172.49 147.83,172.62 147.82,172.75 C147.70,173.78 147.61,174.45 147.21,174.83 C147.52,174.36 147.70,173.65 147.82,172.67 C147.83,172.57 147.84,172.46 147.85,172.36 ZM 118.86 127.16 C114.26,127.13 109.77,127.51 106.81,128.37 C106.84,128.36 106.87,128.35 106.90,128.34 C109.80,127.50 114.26,127.13 118.86,127.16 ZM 183.85 22.09 C184.28,22.94 184.56,23.61 184.66,24.00 C184.68,24.10 184.71,24.20 184.74,24.30 C184.63,24.03 184.53,23.76 184.44,23.50 C184.29,23.08 184.09,22.60 183.85,22.09 ZM 102.13 200.38 C103.91,200.58 105.59,200.92 107.36,201.41 C105.52,200.92 103.82,200.59 102.13,200.38 ZM 169.30 92.96 C169.59,92.97 169.90,92.98 170.23,92.98 C170.99,92.99 171.71,93.15 172.35,93.46 C171.68,93.15 170.92,93.00 170.05,93.00 C169.81,93.00 169.56,92.98 169.30,92.96 ZM 139.03 132.26 C138.17,131.30 136.94,130.50 135.21,129.61 C136.96,130.51 138.18,131.27 139.03,132.26 ZM 136.99 181.62 C136.96,182.57 136.88,183.14 136.65,183.44 C136.84,183.06 136.95,182.46 136.99,181.62 ZM 107.53 179.00 C107.34,178.99 107.33,178.67 107.49,178.18 C107.39,178.53 107.40,178.80 107.53,179.00 ZM 153.97 130.51 C153.36,129.97 152.75,129.50 152.20,129.14 C152.73,129.47 153.32,129.93 153.97,130.51 Z" fill="rgb(164,178,152)"/>
<path d="M 120.68 153.68 C122.72,153.57 124.60,153.35 126.00,153.06 C129.02,152.41 132.35,151.80 133.40,151.70 C137.11,151.31 136.06,153.96 131.32,156.94 C130.10,157.70 129.11,158.28 128.18,158.70 C128.47,158.50 128.73,158.27 129.00,158.00 C131.28,155.72 131.59,154.04 129.75,153.92 C127.68,153.79 124.30,153.72 120.68,153.68 ZM 135.00 167.00 C135.35,167.00 135.65,167.03 135.89,167.11 C135.94,167.17 135.99,167.23 136.04,167.28 C136.24,167.51 136.46,167.71 136.70,167.88 C136.93,168.41 137.00,169.24 137.00,170.50 C137.00,174.46 136.78,174.63 134.57,172.43 C132.30,170.16 132.55,167.00 135.00,167.00 ZM 163.00 181.07 C163.00,178.63 163.43,178.00 165.07,178.00 C166.73,178.00 167.07,178.54 166.82,180.74 C166.63,182.39 165.81,183.61 164.75,183.81 C163.39,184.07 163.00,183.46 163.00,181.07 ZM 166.80 167.90 C166.82,167.95 166.85,168.01 166.88,168.06 C167.45,169.45 166.75,172.06 164.93,173.04 C163.01,174.06 162.89,173.90 163.18,170.83 C163.39,168.63 164.09,167.41 165.25,167.18 C166.00,167.04 166.51,167.35 166.80,167.90 ZM 137.00 180.85 L 137.00 180.85 C137.00,181.13 136.99,181.39 136.99,181.62 C136.95,182.46 136.84,183.06 136.65,183.44 C136.37,183.81 135.89,183.77 135.03,183.53 C134.78,183.35 134.50,183.10 134.20,182.80 C132.27,180.87 132.74,178.00 135.00,178.00 C136.52,178.00 136.98,178.64 137.00,180.85 ZM 162.48 162.20 C163.56,159.37 161.56,158.08 155.09,157.85 C157.95,157.87 160.22,157.99 161.00,158.27 C161.82,158.57 163.29,159.06 164.25,159.37 C166.59,160.13 166.46,161.68 163.94,163.03 C163.15,163.45 161.39,163.80 159.15,164.06 C160.95,163.60 162.18,162.98 162.48,162.20 ZM 122.51 132.08 C123.29,132.12 124.04,132.17 124.77,132.22 C117.64,131.83 107.14,132.46 105.89,133.71 C104.69,134.91 105.52,136.64 107.45,137.68 C101.90,135.89 102.35,134.06 107.21,132.98 C111.17,132.24 117.26,131.89 122.51,132.08 ZM 105.01 154.00 C105.00,153.94 105.00,153.87 105.00,153.81 C105.00,153.47 107.37,153.36 110.58,153.51 C110.70,153.58 110.83,153.65 110.95,153.71 C107.63,153.76 105.20,153.86 105.01,154.00 ZM 113.20 138.74 C117.11,138.88 122.53,138.67 126.63,138.25 C122.59,138.91 117.54,139.13 113.20,138.74 ZM 140.34 163.92 C138.05,163.37 135.67,162.30 135.04,161.55 C135.67,162.30 138.05,163.34 140.34,163.85 C141.06,164.01 141.81,164.16 142.57,164.28 C141.70,164.18 140.94,164.06 140.34,163.92 ZM 138.61 158.83 C135.34,159.47 134.08,160.40 135.04,161.55 C134.14,160.46 134.58,159.97 137.20,159.14 C137.55,159.03 138.03,158.93 138.61,158.83 ZM 133.81 134.82 C133.88,134.89 133.94,134.96 134.00,135.03 C133.98,135.30 133.86,135.56 133.64,135.81 C133.87,135.44 133.93,135.12 133.81,134.82 ZM 110.26 159.30 C109.23,159.10 107.93,158.18 106.88,157.08 C107.95,158.17 109.28,159.11 110.26,159.30 ZM 113.21 153.68 C113.21,153.68 113.21,153.68 113.22,153.67 C113.26,153.68 113.29,153.68 113.33,153.68 Z" fill="rgb(236,242,230)"/>
<path d="M 0.00 137.00 L 0.00 0.00 L 122.00 0.00 L 244.00 0.00 L 244.00 137.00 L 244.00 274.00 L 122.00 274.00 L 0.00 274.00 L 0.00 137.00 ZM 151.00 268.00 C159.93,264.98 163.96,263.11 174.30,257.15 C179.69,254.04 185.31,250.89 186.80,250.14 C195.63,245.69 205.26,237.73 223.83,219.55 C237.51,206.16 240.00,202.94 240.00,198.61 C240.00,195.05 236.26,189.19 232.88,187.44 C229.68,185.78 229.30,184.02 231.43,180.71 C233.23,177.92 236.97,163.34 236.88,159.43 C236.85,157.82 237.14,153.78 237.53,150.45 C239.30,135.46 232.76,109.88 223.20,94.33 C213.96,79.30 199.17,64.49 185.25,56.31 C182.91,54.93 181.00,53.60 181.00,53.34 C181.00,53.08 182.08,51.43 183.41,49.68 C187.73,43.97 189.26,31.59 186.14,27.60 C185.66,27.00 185.00,25.38 184.66,24.00 C184.32,22.62 181.67,17.90 178.77,13.50 C174.53,7.06 173.02,5.50 171.01,5.50 C166.95,5.50 167.45,8.54 172.87,16.81 C175.64,21.04 178.60,26.17 179.45,28.22 C182.38,35.26 180.69,44.69 175.85,48.28 C173.33,50.14 172.98,50.16 168.85,48.63 C150.36,41.79 124.00,41.12 104.97,47.01 C97.34,49.37 96.55,50.02 97.53,53.11 C98.30,55.51 99.17,55.43 111.00,51.97 C123.87,48.21 147.36,48.97 162.50,53.64 C181.10,59.37 201.70,74.87 213.50,92.01 C222.88,105.64 226.73,115.27 230.03,133.39 C231.39,140.91 230.86,161.30 229.16,166.50 C228.63,168.15 227.16,172.78 225.90,176.79 C223.34,184.93 223.29,184.99 217.00,187.33 C214.52,188.24 210.25,190.71 207.50,192.80 C204.75,194.89 198.59,199.58 193.81,203.23 C182.17,212.12 181.37,212.51 179.26,210.40 C174.99,206.13 170.11,205.05 155.00,205.01 C139.00,204.97 132.49,203.83 121.50,199.15 C105.49,192.34 92.61,191.70 77.36,196.97 L 69.21 199.78 L 64.23 194.64 C46.02,175.84 34.03,143.75 34.01,113.78 C34.00,98.74 38.29,75.01 42.83,64.98 C43.95,62.52 45.10,59.83 45.40,59.00 C45.69,58.17 47.53,54.80 49.48,51.50 C55.45,41.42 55.56,41.13 53.79,39.36 C51.23,36.80 48.52,38.54 39.87,48.32 C30.03,59.44 25.73,65.65 19.28,78.05 C8.06,99.63 3.61,118.50 3.60,144.50 C3.59,159.55 3.91,162.85 6.35,173.25 C12.15,198.00 21.72,215.85 37.92,232.12 C42.64,236.86 49.91,242.96 54.08,245.67 C68.79,255.26 91.95,263.00 122.50,268.55 C136.67,271.12 142.07,271.02 151.00,268.00 ZM 163.50 189.20 C170.58,187.26 171.75,184.86 171.88,171.91 C171.97,163.59 171.62,160.08 170.55,158.44 C168.29,154.98 160.91,153.00 150.32,153.00 L 141.00 153.00 L 140.97 143.75 C140.93,133.65 140.37,132.28 135.21,129.61 C130.21,127.02 113.94,126.29 106.90,128.34 C99.21,130.58 98.16,132.05 97.80,141.03 L 97.50 148.50 L 90.50 149.06 C79.84,149.92 75.13,153.09 72.41,161.26 C66.59,178.80 84.01,193.77 100.39,185.30 C102.38,184.27 104.46,184.01 106.90,184.49 C108.88,184.88 114.55,185.34 119.50,185.52 C125.20,185.72 129.97,186.48 132.50,187.58 C134.70,188.54 138.07,189.66 140.00,190.08 C144.66,191.09 158.51,190.57 163.50,189.20 ZM 187.06 184.97 C191.79,182.44 192.00,180.54 192.00,140.50 L 192.00 102.91 L 189.55 100.45 C187.54,98.45 186.09,98.00 181.66,98.00 C176.97,98.00 176.01,97.66 174.59,95.50 C173.51,93.85 172.02,92.99 170.23,92.98 C167.08,92.97 165.92,92.28 164.41,89.50 C161.56,84.29 153.54,84.00 149.86,88.98 C148.44,90.90 146.55,91.98 143.86,92.41 C141.00,92.86 139.64,93.70 138.81,95.52 C137.79,97.75 137.09,98.00 131.88,98.00 C123.18,98.00 122.00,99.68 122.00,112.08 C122.00,120.03 122.29,121.90 123.59,122.40 C126.31,123.44 126.72,122.32 126.92,113.34 C127.02,108.55 127.34,104.26 127.61,103.81 C127.89,103.37 130.57,103.00 133.56,103.00 C138.63,103.00 139.00,103.16 139.00,105.39 C139.00,106.71 139.71,108.06 140.58,108.39 C141.45,108.73 148.79,109.00 156.89,109.00 C172.31,109.00 174.48,108.47 175.18,104.50 C175.49,102.76 176.18,102.55 180.52,102.85 C183.26,103.05 185.84,103.41 186.25,103.66 C187.59,104.48 187.16,178.44 185.80,179.80 C185.14,180.46 182.66,181.00 180.30,181.00 C176.80,181.00 176.00,181.34 176.00,182.83 C176.00,183.84 176.30,184.97 176.67,185.33 C177.70,186.37 184.91,186.12 187.06,184.97 ZM 216.47 155.64 C218.22,154.37 218.24,154.05 216.76,150.36 C215.41,146.98 215.38,146.00 216.56,143.20 C218.22,139.24 217.51,137.00 214.58,137.00 C211.93,137.00 209.00,142.41 209.00,147.28 C209.01,150.48 212.22,157.00 213.79,157.00 C214.25,157.00 215.45,156.39 216.47,155.64 ZM 168.23 132.27 C177.92,122.62 179.57,119.82 176.31,118.57 C175.09,118.10 172.35,120.18 166.33,126.17 L 158.03 134.42 L 154.60 131.10 C151.07,127.67 149.00,127.66 149.00,131.07 C149.00,132.76 156.57,142.00 157.96,142.00 C158.24,142.00 162.86,137.62 168.23,132.27 ZM 126.50 262.56 C118.13,261.14 97.05,255.98 83.99,252.16 C78.44,250.54 61.63,243.04 58.50,240.78 C46.02,231.80 33.34,218.83 28.11,209.69 C26.39,206.69 24.32,203.68 23.49,202.99 C22.67,202.31 22.00,200.87 22.00,199.78 C22.00,198.70 21.35,196.61 20.55,195.15 C15.55,186.00 10.98,165.79 10.25,149.59 C9.43,131.38 11.39,117.48 17.08,101.08 C23.52,82.52 24.06,81.24 28.03,75.27 C33.54,66.96 34.36,68.72 31.08,81.83 C28.26,93.16 26.65,110.12 27.42,120.50 C29.81,152.73 41.50,180.68 61.42,201.83 C67.61,208.39 67.80,208.42 76.45,204.43 C82.54,201.61 85.79,200.78 92.45,200.31 C102.09,199.63 106.60,200.52 119.42,205.65 C131.01,210.30 140.52,211.92 156.50,211.98 C170.55,212.03 173.47,212.81 175.88,217.10 C177.17,219.40 177.12,220.08 175.41,223.58 C174.36,225.73 172.38,228.04 171.00,228.73 C169.26,229.59 161.83,230.00 146.50,230.08 C122.01,230.20 114.68,231.23 114.20,234.59 C113.66,238.38 116.18,239.29 122.31,237.51 C126.86,236.19 131.32,236.02 148.64,236.48 C168.93,237.03 169.62,236.99 173.94,234.77 C179.42,231.97 181.98,228.58 182.70,223.18 C183.20,219.50 183.92,218.56 189.24,214.77 C192.52,212.42 198.84,207.80 203.26,204.50 C215.24,195.57 217.28,194.30 221.78,192.95 C225.08,191.96 226.51,191.97 228.99,192.99 C232.80,194.57 234.44,197.31 233.09,199.83 C232.55,200.83 224.30,209.28 214.74,218.59 C195.02,237.83 187.74,243.19 167.08,253.72 C147.13,263.89 141.52,265.11 126.50,262.56 ZM 143.75 185.30 C142.67,185.03 142.00,183.90 142.00,182.36 C142.00,180.23 142.40,179.91 144.75,180.18 C146.90,180.43 147.50,181.02 147.50,182.92 C147.50,185.47 146.61,186.04 143.75,185.30 ZM 153.70 185.37 C153.32,184.98 153.00,183.62 153.00,182.33 C153.00,180.50 153.54,180.00 155.57,180.00 C157.77,180.00 158.09,180.38 157.82,182.74 C157.51,185.36 155.18,186.85 153.70,185.37 ZM 86.62 182.00 C80.99,180.25 76.00,173.30 76.00,167.22 C76.00,165.82 77.14,162.74 78.52,160.37 C80.55,156.92 81.88,155.84 85.25,154.93 C93.39,152.74 100.39,155.32 103.47,161.65 C108.72,172.46 97.91,185.52 86.62,182.00 ZM 111.00 180.34 C110.18,180.07 108.92,179.66 108.21,179.44 C107.23,179.13 107.18,178.54 107.99,177.01 C108.96,175.20 110.07,175.00 119.04,175.00 C127.96,175.00 129.00,175.19 129.00,176.80 C129.00,180.07 126.85,181.00 119.55,180.92 C115.67,180.88 111.82,180.62 111.00,180.34 ZM 143.75 175.30 C142.69,175.03 142.00,173.90 142.00,172.43 C142.00,170.39 142.49,170.00 145.07,170.00 C147.80,170.00 148.10,170.29 147.82,172.67 C147.48,175.49 146.62,176.04 143.75,175.30 ZM 153.00 172.57 C153.00,170.48 153.48,170.00 155.57,170.00 C157.66,170.00 158.08,170.42 157.82,172.25 C157.61,173.70 156.70,174.61 155.25,174.82 C153.42,175.08 153.00,174.66 153.00,172.57 ZM 114.50 170.14 C111.01,169.58 110.46,169.13 110.17,166.61 C109.85,163.85 109.98,163.75 113.04,164.36 C114.81,164.71 119.12,165.00 122.62,165.00 C128.27,165.00 129.00,165.22 129.00,166.94 C129.00,168.01 128.66,169.09 128.25,169.34 C126.72,170.28 118.38,170.77 114.50,170.14 ZM 140.34 163.85 C138.05,163.34 135.67,162.30 135.04,161.55 C133.31,159.47 138.78,158.14 150.27,157.85 C160.55,157.60 163.80,158.75 162.48,162.20 C161.44,164.90 149.11,165.82 140.34,163.85 ZM 110.26 159.30 C108.32,158.92 105.00,155.60 105.00,154.02 C105.00,153.61 123.46,153.53 129.75,153.92 C131.59,154.04 131.28,155.72 129.00,158.00 C127.34,159.66 125.78,159.98 119.75,159.86 C115.76,159.79 111.49,159.53 110.26,159.30 ZM 112.00 149.07 C106.08,148.20 103.00,146.41 103.00,143.85 C103.00,142.09 103.43,141.87 105.75,142.40 C112.36,143.91 123.94,144.21 128.94,143.01 C134.74,141.62 136.83,142.49 134.71,145.39 C133.36,147.23 123.40,150.06 119.00,149.85 C117.62,149.79 114.47,149.43 112.00,149.07 ZM 109.32 138.36 C106.14,137.66 104.36,135.24 105.89,133.71 C107.54,132.05 125.35,131.49 130.19,132.94 C134.37,134.19 134.83,135.07 132.38,137.10 C130.76,138.44 113.92,139.37 109.32,138.36 ZM 144.00 100.56 C144.00,97.23 144.14,97.10 148.19,96.81 C151.96,96.53 152.47,96.18 153.20,93.32 C154.57,88.03 159.05,89.10 161.30,95.25 C161.67,96.27 162.96,97.00 164.39,97.00 C169.81,97.00 171.54,99.32 168.43,102.43 C167.18,103.67 164.48,104.00 155.43,104.00 L 144.00 104.00 L 144.00 100.56 Z" fill="rgb(254,254,253)"/>
</g>
</svg>